<?xml version="1.0" encoding="utf-8"?>
<!-- Generator: Adobe Illustrator 27.5.0, SVG Export Plug-In . SVG Version: 6.00 Build 0)  -->
<svg version="1.1" id="Layer_1" xmlns="http://www.w3.org/2000/svg" xmlns:xlink="http://www.w3.org/1999/xlink" x="0px" y="0px"
	 viewBox="0 0 321.558 278.969" style="enable-background:new 0 0 321.558 278.969;" xml:space="preserve">
<g>
	<g>
		<g>
			<g>
				<path style="fill:#6A8CA3;" d="M152.269,154.572c-0.713-2.922-0.486-5.959,0.466-8.8c0.544-1.625,1.327-3.167,2.104-4.69
					c0.841-1.648,1.751-3.263,2.765-4.812c1.932-2.953,4.268-5.682,7.131-7.769c1.447-1.056,3.007-1.918,4.644-2.595
					c5.748-1.602,10.491,1.867,14.498,5.834c2.342,2.318,4.511,4.81,6.737,7.237c4.819,5.253,9.871,10.541,16.152,14.054
					c5.976,3.342,12.624,5.383,19.35,6.541c3.431,0.591,6.89,0.952,10.374,0.944c1.769-0.004,3.551-0.076,5.31-0.279
					c1.543-0.179,3.029-0.669,4.531-1.041c0.74-0.184,1.489-0.346,2.249-0.423c0.632-0.064,1.365-0.133,1.992-0.004
					c1.113,0.229,0.468,1.55,0.189,2.196c-0.529,1.222-1.424,2.293-2.3,3.279c-0.91,1.023-1.89,1.982-2.85,2.958
					c-5.062,5.142-11.087,9.315-17.466,12.653c-3.015,1.577-6.112,2.956-9.361,3.978c-3.212,1.01-6.52,1.716-9.861,2.121
					c-1.666,0.202-3.341,0.329-5.019,0.377c-0.923,0.026-2.188,0.14-2.958-0.499c-1.299-1.078,0.185-2.988,0.758-4.035
					c0.207-0.379,0.419-0.779,0.573-1.195c-1.451,1.079-2.599,2.53-4.384,3.134c-0.198,0.067-0.374-0.16-0.445-0.307
					c-0.581-1.194-0.001-2.31,0.417-3.447c-0.77,0.775-1.643,1.458-2.501,2.052c-0.834,0.578-1.726,1.112-2.699,1.421
					c-1.022,0.325-2.113,0.366-3.175,0.259c-2.17-0.218-4.248-1.028-6.243-1.864c-2.611-1.094-5.136-2.374-7.567-3.826
					c-7.895-4.718-14.472-11.042-20.803-17.622C153.708,158.601,152.776,156.652,152.269,154.572z"/>
				<path style="fill:#536F82;" d="M202.968,186.67c-0.781,0-1.616-0.092-2.224-0.596c-1.317-1.093-0.289-2.8,0.391-3.93
					c0.08-0.134,0.157-0.26,0.224-0.378c-0.059,0.052-0.118,0.103-0.176,0.155c-0.936,0.824-1.904,1.677-3.191,2.113
					c-0.357,0.12-0.673-0.148-0.829-0.467c-0.423-0.869-0.302-1.685-0.048-2.472c-0.471,0.398-0.993,0.794-1.574,1.197
					c-0.718,0.497-1.682,1.113-2.783,1.463c-0.959,0.304-2.07,0.396-3.302,0.272c-2.222-0.223-4.347-1.055-6.333-1.887
					c-2.598-1.089-5.158-2.383-7.607-3.846c-7.991-4.775-14.752-11.316-20.868-17.674c-0.014-0.014-0.027-0.03-0.037-0.047
					c-1.279-1.972-2.171-3.966-2.649-5.926c0,0,0,0,0,0c-0.698-2.862-0.535-5.965,0.473-8.974c0.559-1.669,1.354-3.227,2.122-4.733
					c0.916-1.797,1.826-3.38,2.781-4.841c2.154-3.292,4.58-5.934,7.209-7.852c1.436-1.047,3.021-1.933,4.709-2.631
					c0.012-0.005,0.023-0.009,0.036-0.012c6.107-1.702,11.119,2.266,14.803,5.914c1.74,1.722,3.408,3.565,5.022,5.348
					c0.574,0.635,1.149,1.269,1.727,1.899c4.965,5.413,9.93,10.556,16.073,13.992c5.469,3.059,11.946,5.248,19.25,6.505
					c3.712,0.639,7.083,0.936,10.32,0.94c1.974-0.004,3.699-0.095,5.274-0.277c1.099-0.127,2.197-0.424,3.259-0.711
					c0.411-0.111,0.821-0.221,1.232-0.324c0.667-0.166,1.462-0.346,2.293-0.431c0.59-0.06,1.395-0.141,2.087,0.001
					c0.364,0.075,0.62,0.252,0.762,0.527c0.31,0.599-0.059,1.44-0.303,1.997l-0.046,0.105c-0.557,1.287-1.507,2.41-2.354,3.363
					c-0.723,0.813-1.499,1.595-2.25,2.352c-0.204,0.206-0.408,0.411-0.611,0.618c-4.756,4.832-10.659,9.108-17.544,12.711
					c-3.347,1.752-6.426,3.06-9.412,3.999c-3.193,1.005-6.529,1.722-9.918,2.134c-1.686,0.205-3.384,0.332-5.048,0.379l-0.263,0.009
					C203.432,186.661,203.202,186.67,202.968,186.67z M202.276,180.286c0.066,0,0.133,0.021,0.189,0.063
					c0.112,0.084,0.155,0.23,0.106,0.361c-0.164,0.443-0.392,0.871-0.592,1.237c-0.086,0.157-0.191,0.332-0.305,0.52
					c-0.782,1.299-1.362,2.43-0.528,3.121c0.607,0.503,1.647,0.465,2.481,0.436l0.267-0.009c1.645-0.047,3.324-0.173,4.99-0.375
					c3.35-0.407,6.649-1.116,9.805-2.109c2.95-0.928,5.995-2.222,9.309-3.957c6.828-3.572,12.678-7.81,17.388-12.595
					c0.204-0.207,0.409-0.413,0.614-0.62c0.744-0.75,1.514-1.526,2.226-2.326c0.815-0.916,1.727-1.993,2.247-3.194l0.047-0.108
					c0.172-0.392,0.492-1.123,0.32-1.455c-0.019-0.037-0.077-0.148-0.33-0.2c-0.597-0.123-1.348-0.047-1.897,0.009
					c-0.792,0.08-1.559,0.255-2.205,0.415c-0.407,0.101-0.813,0.211-1.22,0.32c-1.084,0.293-2.205,0.595-3.351,0.728
					c-1.599,0.185-3.347,0.278-5.345,0.282c-0.036,0-0.071,0-0.107,0c-3.237,0-6.614-0.311-10.321-0.949
					c-7.374-1.27-13.918-3.482-19.45-6.576c-6.225-3.481-11.229-8.663-16.23-14.116c-0.579-0.631-1.154-1.267-1.729-1.903
					c-1.608-1.777-3.27-3.614-4.997-5.323c-3.781-3.743-8.419-7.353-14.174-5.76c-1.636,0.678-3.171,1.536-4.562,2.551
					c-2.568,1.872-4.941,4.459-7.053,7.688c-0.943,1.441-1.842,3.005-2.747,4.782c-0.758,1.486-1.542,3.023-2.086,4.648
					c-0.97,2.896-1.129,5.879-0.459,8.625v0c0.459,1.883,1.317,3.803,2.549,5.707c7.025,7.301,13.238,13.079,20.717,17.548
					c2.424,1.448,4.956,2.729,7.528,3.806c1.942,0.814,4.018,1.627,6.153,1.841c1.146,0.115,2.172,0.032,3.049-0.246
					c1.02-0.324,1.933-0.908,2.615-1.38c0.981-0.68,1.785-1.339,2.457-2.016c0.104-0.105,0.267-0.123,0.392-0.043
					c0.125,0.079,0.177,0.235,0.126,0.374c-0.053,0.144-0.108,0.288-0.164,0.432c-0.367,0.951-0.714,1.849-0.265,2.77
					c0.029,0.059,0.071,0.11,0.099,0.134c1.149-0.399,2.019-1.165,2.94-1.976c0.421-0.371,0.857-0.755,1.321-1.1
					C202.144,180.307,202.21,180.286,202.276,180.286z"/>
			</g>
			<path style="opacity:0.65;fill:#6A8CA3;" d="M169.217,173.584c-0.257-1.663-0.128-3.367,0.205-5.009
				c0.35-1.725,0.937-3.408,1.724-4.982c0.365-0.731,0.776-1.44,1.244-2.11c0.553-0.794,1.194-1.494,1.892-2.164
				c1.98-1.904,4.238-3.506,6.605-4.891c2.467-1.444,5.063-2.658,7.711-3.73c2.58-1.045,5.214-1.951,7.871-2.776
				c0.766-0.238,1.537-0.47,2.312-0.692c-2.894-2.572-5.565-5.415-8.167-8.251c-2.226-2.427-4.396-4.919-6.737-7.237
				c-4.007-3.967-8.75-7.436-14.498-5.834c-1.637,0.677-3.197,1.539-4.644,2.595c-2.863,2.088-5.199,4.817-7.131,7.77
				c-1.013,1.549-1.924,3.163-2.765,4.812c-0.777,1.523-1.56,3.066-2.104,4.69c-0.952,2.841-1.179,5.878-0.466,8.8
				c0.507,2.079,1.439,4.029,2.607,5.829c4.525,4.704,9.18,9.273,14.349,13.222C169.223,173.61,169.219,173.597,169.217,173.584z"/>
			<path style="fill:#6A8CA3;" d="M192.341,145.088c3.954,3.644,8.163,7.051,12.734,9.895c4.082,2.54,8.458,4.523,13.076,5.864
				c4.022,1.168,8.19,1.916,12.377,2.167c-5.02,0.103-10.037-0.656-14.83-2.143c-4.958-1.538-9.666-3.848-13.976-6.736
				c-4.38-2.934-8.35-6.482-11.79-10.475c-1.109-1.287-2.154-2.628-3.147-4.007C188.588,141.515,190.435,143.332,192.341,145.088z"
				/>
			<path style="opacity:0.65;fill:#6A8CA3;" d="M152.269,154.572c-0.713-2.922-0.486-5.959,0.466-8.8
				c0.544-1.625,1.327-3.167,2.104-4.69c0.841-1.648,1.751-3.263,2.765-4.812c1.932-2.953,4.268-5.682,7.131-7.769
				c1.447-1.055,3.006-1.917,4.643-2.594c0.719-0.2,1.423-0.323,2.111-0.373c-3.65,2.258-7.018,4.958-8.937,8.886
				c-1.283,2.626-1.856,5.581-1.436,8.486c0.362,2.502,1.399,4.839,2.755,6.956c1.47,2.295,3.273,4.357,5.152,6.322
				c2.085,2.18,4.251,4.288,6.566,6.224c2.339,1.956,4.835,3.745,7.528,5.184c2.504,1.338,5.328,2.573,8.19,2.787
				c2.285,0.171,4.405-0.51,6.434-1.501c1.91-0.933,3.755-1.968,5.827-2.478c-0.338,2.449-1.114,4.885-0.864,7.374
				c0.015,0.145,0.127,0.271,0.281,0.264c1.481-0.065,2.7-0.836,3.796-1.776c0.964-0.827,1.857-1.826,2.976-2.453
				c-0.052,0.204-0.108,0.407-0.167,0.609c-0.467,1.61-1.172,3.343-0.937,5.051c0.107,0.773,0.443,1.488,1.034,2.009
				c0.485,0.428,1.115,0.609,1.744,0.695c1.707,0.234,3.482-0.034,5.168-0.314c1.546-0.257,3.074-0.605,4.609-0.923
				c4.114-0.851,8.15-2.17,12.023-3.79c4.174-1.745,8.228-3.877,11.85-6.602c2.001-1.505,3.904-3.218,5.487-5.176
				c-0.538,1.056-1.329,1.999-2.108,2.874c-0.91,1.024-1.89,1.982-2.85,2.958c-5.062,5.142-11.087,9.315-17.466,12.653
				c-3.015,1.577-6.112,2.956-9.361,3.978c-3.212,1.01-6.52,1.716-9.861,2.121c-1.666,0.202-3.341,0.329-5.019,0.377
				c-0.923,0.026-2.188,0.14-2.958-0.499c-1.299-1.078,0.185-2.988,0.758-4.035c0.207-0.379,0.419-0.779,0.573-1.195
				c-1.451,1.079-2.599,2.53-4.384,3.134c-0.198,0.067-0.374-0.16-0.445-0.307c-0.581-1.194-0.001-2.31,0.417-3.447
				c-0.77,0.775-1.643,1.458-2.501,2.052c-0.834,0.578-1.726,1.112-2.699,1.421c-1.022,0.325-2.113,0.366-3.175,0.259
				c-2.17-0.218-4.248-1.028-6.243-1.864c-2.611-1.094-5.136-2.374-7.567-3.826c-7.895-4.718-14.472-11.042-20.803-17.622
				C153.708,158.601,152.776,156.652,152.269,154.572z"/>
			<path style="opacity:0.65;fill:#6A8CA3;" d="M153.611,158.19c0.487,0.461,0.98,0.915,1.482,1.361
				c3.579,3.185,7.486,5.99,11.579,8.474c3.922,2.381,8.05,4.354,12.105,6.489c3.268,1.721,6.75,3.556,10.485,3.918
				c1.99,0.193,3.9-0.194,5.592-1.287c1.615-1.043,2.884-2.526,4.471-3.602c0.695,2.551,0.395,5.192-0.036,7.77
				c-0.03,0.179,0.141,0.411,0.343,0.323c2.514-1.091,4.11-3.436,6.209-5.104c-0.132,2.413-1.424,4.552-2.425,6.706
				c-0.076,0.163,0.004,0.346,0.18,0.393c3.516,0.943,7.255,0.292,10.706-0.62c1.54-0.407,3.059-0.887,4.578-1.366
				c1.759-0.555,3.538-1.035,5.286-1.626c3.671-1.241,7.257-2.743,10.705-4.511c0.925-0.474,1.84-0.971,2.744-1.485
				c-3.009,2.175-6.194,4.114-9.473,5.829c-3.015,1.577-6.112,2.956-9.361,3.978c-3.212,1.01-6.52,1.716-9.861,2.121
				c-1.666,0.202-3.341,0.329-5.019,0.377c-0.923,0.026-2.188,0.14-2.958-0.499c-1.299-1.078,0.185-2.988,0.758-4.035
				c0.207-0.379,0.419-0.779,0.573-1.195c-1.451,1.079-2.599,2.53-4.384,3.134c-0.198,0.067-0.374-0.16-0.445-0.307
				c-0.581-1.194-0.001-2.31,0.417-3.447c-0.77,0.775-1.643,1.458-2.501,2.052c-0.834,0.578-1.726,1.112-2.699,1.421
				c-1.022,0.325-2.113,0.366-3.175,0.259c-2.17-0.218-4.248-1.028-6.243-1.864c-2.611-1.094-5.136-2.374-7.567-3.826
				c-7.895-4.718-14.472-11.042-20.803-17.622C154.413,159.687,153.988,158.95,153.611,158.19z"/>
		</g>
		<g>
			<g>
				<g>
					<g>
						<path style="fill:#AFB1B4;" d="M277.307,118.037c0,0-2.07-4.312-5.701-1.014c-3.631,3.298-0.954,6.503-0.954,6.503
							L277.307,118.037z"/>
						<path style="fill:#231F20;" d="M270.546,123.615c-0.028-0.033-2.718-3.345,0.967-6.693c1.12-1.018,2.215-1.431,3.253-1.228
							c1.71,0.334,2.626,2.205,2.664,2.284c0.027,0.057,0.013,0.125-0.036,0.166l-6.655,5.489c-0.014,0.012-0.031,0.021-0.047,0.026
							C270.641,123.674,270.583,123.658,270.546,123.615z M274.712,115.963c-0.948-0.184-1.962,0.207-3.014,1.162
							c-3.162,2.872-1.45,5.622-1.024,6.204l6.459-5.327C276.925,117.623,276.077,116.229,274.712,115.963z"/>
					</g>
					<g>
						<path style="fill:#7C7F82;" d="M276.281,118.349c0,0-2.07-4.312-5.701-1.014c-3.631,3.298-0.954,6.503-0.954,6.503
							L276.281,118.349z"/>
						<path style="fill:#231F20;" d="M269.52,123.926c-0.028-0.033-2.719-3.345,0.967-6.693c1.12-1.018,2.215-1.431,3.253-1.228
							c1.71,0.334,2.626,2.205,2.664,2.284c0.027,0.057,0.013,0.126-0.036,0.166l-6.655,5.489c-0.014,0.012-0.031,0.02-0.047,0.026
							C269.615,123.986,269.557,123.97,269.52,123.926z M273.686,116.275c-0.948-0.184-1.962,0.207-3.014,1.162
							c-3.162,2.872-1.45,5.622-1.025,6.204l6.459-5.327C275.899,117.936,275.051,116.541,273.686,116.275z"/>
					</g>
					<path style="fill:#7C7F82;" d="M270.161,120.136c0.737-0.366,1.458-0.764,2.192-1.137c1.08-0.549,2.165-1.093,3.222-1.685
						c0.463,0.531,0.705,1.035,0.705,1.035l-6.655,5.489c0,0-1.061-1.272-0.939-3.037
						C269.182,120.589,269.678,120.376,270.161,120.136z"/>
					<g>
						<path style="fill:#AFB1B4;" d="M234.293,147.031c0,0-2.508-2.784-5.307-1.81c0,0-0.71,1.036-0.399,1.249
							c0.311,0.213,2.913,1.082,3.304,3.178C232.282,151.743,234.293,147.031,234.293,147.031z"/>
						<path style="fill:#231F20;" d="M232.203,150.321c-0.334-0.037-0.42-0.496-0.448-0.647c-0.317-1.697-2.147-2.559-2.928-2.927
							c-0.157-0.074-0.26-0.123-0.318-0.162c-0.383-0.262,0.127-1.095,0.364-1.441c0.017-0.024,0.041-0.042,0.068-0.052
							c1.182-0.412,2.504-0.222,3.819,0.551c0.984,0.578,1.61,1.268,1.636,1.297c0.036,0.04,0.045,0.097,0.024,0.146
							c-0.311,0.729-1.331,2.995-2.067,3.219C232.301,150.32,232.251,150.326,232.203,150.321z M229.164,145.308
							c-0.03,0.009-0.06,0.019-0.09,0.029c-0.333,0.497-0.496,0.961-0.41,1.02c0.04,0.027,0.151,0.08,0.28,0.14
							c0.819,0.386,2.739,1.29,3.082,3.126c0.048,0.257,0.125,0.415,0.207,0.424c0.362,0.04,1.256-1.504,1.897-2.987
							C233.744,146.665,231.558,144.577,229.164,145.308z"/>
					</g>
					<path style="fill:#AFB1B4;" d="M229.169,146.033c0.258-0.039,0.529-0.042,0.786,0.009c0.27,0.053,0.513,0.194,0.747,0.33
						c0.214,0.124,0.43,0.26,0.669,0.331c0.216,0.065,0.447,0.051,0.66-0.021c0.391-0.133,0.626-0.48,0.805-0.833
						c0.892,0.555,1.457,1.181,1.457,1.181s-2.011,4.712-2.402,2.617c-0.391-2.095-2.993-2.965-3.304-3.178
						c-0.074-0.051-0.089-0.149-0.071-0.267C228.728,146.127,228.945,146.067,229.169,146.033z"/>
					<g>
						<g>
							<path style="fill:#AFB1B4;" d="M279.145,116.469l-44.301,26.574c0,0-1.099,0.567-1.183,1.727
								c-0.085,1.16-0.708,2.662-1.272,3.189c-0.564,0.527-1.594,1.141-1.722,2.068c-0.128,0.927,0.759,6.002,2.526,7.72
								c0,0,0.429,1.004,0.443,1.724c0.014,0.72,25.996-14.579,25.654-14.351c-0.342,0.228,4.282-1.78,2.267-7.729l21.819-12.086
								L279.145,116.469z"/>
							<path style="fill:#231F20;" d="M233.578,159.611c-0.05-0.028-0.08-0.079-0.081-0.136c-0.012-0.624-0.357-1.492-0.421-1.648
								c-1.796-1.779-2.677-6.868-2.546-7.818c0.107-0.778,0.796-1.342,1.348-1.795c0.152-0.125,0.296-0.242,0.416-0.355
								c0.508-0.475,1.141-1.9,1.228-3.098c0.089-1.223,1.21-1.815,1.25-1.835l44.301-26.574c0.033-0.02,0.073-0.025,0.111-0.014
								c0.037,0.011,0.068,0.037,0.085,0.072l4.23,8.837c0.031,0.066,0.006,0.145-0.057,0.18l-21.718,12.031
								c1.885,5.749-2.303,7.771-2.347,7.79c-0.028,0.012-0.054,0.02-0.077,0.024c-0.181,0.104-0.793,0.461-1.661,0.967
								c-2.82,1.645-8.688,5.068-13.897,8.034c-7.394,4.21-9.332,5.153-9.902,5.326
								C233.656,159.654,233.614,159.631,233.578,159.611z M259.212,145.006l0.003,0.004c0.039-0.018,0.068-0.029,0.091-0.033
								c0.294-0.141,1.344-0.801,2.023-2.135c0.768-1.508,0.8-3.326,0.096-5.406c-0.021-0.063,0.006-0.132,0.064-0.165
								l21.705-12.024l-4.108-8.584l-44.179,26.501c-0.01,0.005-1.032,0.548-1.109,1.615c-0.084,1.152-0.711,2.715-1.315,3.28
								c-0.127,0.118-0.274,0.239-0.429,0.367c-0.542,0.445-1.158,0.949-1.25,1.62c-0.124,0.896,0.769,5.933,2.486,7.603
								c0.013,0.013,0.024,0.028,0.031,0.045c0.017,0.04,0.393,0.929,0.447,1.649c1.092-0.301,9.064-4.785,23.733-13.342
								c0.54-0.315,0.97-0.566,1.266-0.738c0.205-0.119,0.337-0.196,0.425-0.24C259.196,145.017,259.204,145.012,259.212,145.006z"
								/>
						</g>
						<path style="fill:#AFB1B4;" d="M249.2,135.445c-1.527,1.096-3.169,2.022-4.833,2.893c-1.605,0.841-3.239,1.626-4.843,2.47
							c-0.794,0.418-1.615,0.824-2.291,1.425c-0.337,0.3-0.635,0.649-0.85,1.046c-0.203,0.374-0.333,0.792-0.458,1.197
							c-0.24,0.778-0.418,1.576-0.707,2.338c-0.214,0.565-0.5,1.09-0.863,1.561c0.114-0.252,0.211-0.512,0.299-0.77
							c0.382-1.12,0.634-2.382,0.447-3.564c-0.053-0.333-0.151-0.67-0.315-0.968c0.035-0.021,0.056-0.032,0.056-0.032l17.691-10.612
							C251.568,133.581,250.419,134.571,249.2,135.445z"/>
						<path style="fill:#AFB1B4;" d="M281.115,125.511c-1.001-0.321-1.955-0.925-2.602-1.763c-0.332-0.429-0.59-0.915-0.855-1.386
							c-0.196-0.349-0.391-0.721-0.678-1.006c-0.679-0.674-1.648-0.317-2.4,0.033c-1.516,0.704-2.977,1.538-4.409,2.397
							c-1.463,0.877-15.191,8.16-15.513,9.606c-0.266,1.195,0.118,3.866,0.449,5.028c-0.454-0.401-0.836-0.879-1.141-1.402
							c-0.649-1.111-0.98-2.399-1.052-3.679c-0.021-0.379-0.017-0.76,0.008-1.141l26.222-15.73l4.23,8.837l-0.796,0.441
							C282.083,125.749,281.584,125.662,281.115,125.511z"/>
						<path style="fill:#AFB1B4;" d="M234.505,146.492c-0.244,0.766-0.608,1.505-1.079,2.158c-0.349,0.483-0.847,0.924-1.011,1.516
							c-0.146,0.529,0.111,1.143,0.571,1.441c0.389,0.251,0.89,0.232,1.327,0.152c0.588-0.108,1.155-0.336,1.695-0.588
							c0.587-0.273,1.153-0.587,1.709-0.919c0.428-0.256,0.848-0.524,1.269-0.792c0.228-0.145,0.438-0.296,0.6-0.517
							c0.154-0.21,0.248-0.456,0.298-0.71c0.114-0.581,0.018-1.189-0.076-1.766c-0.107-0.657-0.243-1.318-0.238-1.987
							c0.012-1.645,1.242-2.981,2.472-3.93c1.411-1.088,3.029-1.852,4.55-2.765c0.341-0.204,0.675-0.413,1.025-0.602
							c0.383-0.206,0.769-0.405,1.151-0.61c0.782-0.42,1.569-0.863,2.25-1.438c0.312-0.264,0.602-0.56,0.833-0.898
							c0.253-0.37,0.436-0.782,0.601-1.197c0.097-0.244,0.191-0.491,0.292-0.734l2.506-1.503c-0.188,0.336-0.343,0.689-0.455,1.057
							c-0.35,1.155-0.197,2.518,0.695,3.395c0.414,0.407,0.947,0.664,1.521,0.748c0.637,0.093,1.267-0.045,1.867-0.258
							c1.286-0.457,2.416-1.255,3.566-1.971c1.431-0.891,2.905-1.711,4.355-2.571c1.472-0.873,2.932-1.768,4.381-2.679
							c0.714-0.449,1.425-0.903,2.132-1.362c0.707-0.459,1.417-0.915,2.099-1.411c0.612-0.445,1.201-0.965,1.51-1.671
							c0.284-0.647,0.246-1.363,0.188-2.051c-0.054-0.633-0.146-1.266-0.102-1.903c0.045-0.647,0.262-1.238,0.567-1.805
							c0.368-0.684,0.899-1.407,1.593-1.807l4.208,8.792l-21.819,12.086c2.014,5.948-2.61,7.956-2.267,7.729
							c0.343-0.228-25.64,15.071-25.654,14.351c-0.014-0.72-0.443-1.724-0.443-1.724c-1.766-1.718-2.654-6.793-2.526-7.72
							c0.128-0.927,1.158-1.541,1.722-2.068c0.564-0.527,1.187-2.029,1.272-3.189c0.07-0.968,0.845-1.521,1.1-1.678
							C234.932,144.225,234.855,145.39,234.505,146.492z"/>
						<g>
							<path style="fill:#7C7F82;" d="M251.362,149.897c0,0-4.964,3.095-5.716,7.452c-0.752,4.357,1.322,12.884,3.28,15.952
								c1.958,3.068,3.484,5.433,1.74,7.385c-1.744,1.952-11.839,4.982-15.247,4.474c0,0-2.441,0.155-1.944-2.347
								c0.497-2.502,1.209-7.394,0.042-12.356c-1.168-4.962-2.164-10.619-0.325-12.709l20.963-11.926
								C254.155,145.822,253.943,147.909,251.362,149.897z"/>
							<path style="fill:#231F20;" d="M235.413,185.298c-0.141,0.006-1.146,0.025-1.733-0.645c-0.384-0.439-0.498-1.067-0.34-1.867
								c0.879-4.429,0.894-8.681,0.043-12.298c-1.138-4.836-2.2-10.665-0.295-12.831c0.01-0.012,0.022-0.021,0.035-0.029
								l20.963-11.926c0.045-0.025,0.1-0.024,0.143,0.004c0.043,0.028,0.067,0.078,0.062,0.129c-0.009,0.088-0.248,2.17-2.846,4.17
								c-0.004,0.003-0.007,0.005-0.011,0.008c-0.012,0.008-1.247,0.784-2.556,2.078c-1.202,1.188-2.715,3.068-3.097,5.281
								c-0.725,4.196,1.286,12.761,3.26,15.854l0.032,0.049c1.955,3.063,3.5,5.482,1.696,7.501c-0.86,0.963-3.625,2.148-6.649,3.07
								C240.806,184.859,237.18,185.555,235.413,185.298z M253.596,147.068c0.203-0.413,0.31-0.755,0.366-0.978l-20.681,11.766
								c-1.801,2.086-0.749,7.81,0.371,12.569c0.86,3.654,0.846,7.947-0.041,12.414c-0.141,0.711-0.048,1.26,0.276,1.631
								c0.529,0.605,1.515,0.553,1.525,0.552c0.01-0.001,0.02,0,0.029,0.001c1.544,0.23,4.681-0.272,8.188-1.31
								c3.424-1.013,6.15-2.239,6.936-3.119c1.665-1.864,0.17-4.205-1.723-7.17l-0.031-0.049c-2.042-3.199-4.048-11.719-3.3-16.049
								c0.395-2.287,1.947-4.217,3.179-5.434c1.283-1.267,2.497-2.046,2.594-2.107C252.585,148.78,253.259,147.753,253.596,147.068z
								"/>
						</g>
						<path style="fill:#7C7F82;" d="M242.477,183.521c0.415-1.461,0.585-2.984,0.609-4.5c0.025-1.607-0.109-3.214-0.314-4.807
							c-0.21-1.624-0.497-3.237-0.796-4.846c-0.288-1.551-0.589-3.101-0.833-4.66c-0.236-1.513-0.515-3.092-0.248-4.618
							c0.134-0.762,0.425-1.574,1.069-2.051c0.602-0.447,1.49-0.517,2.19-0.282c0.554,0.185,0.995,0.551,1.35,1.003
							c-0.199,4.585,1.658,11.777,3.422,14.541c1.958,3.068,3.484,5.433,1.74,7.385c-1.001,1.121-4.758,2.597-8.42,3.554
							C242.33,184.003,242.408,183.763,242.477,183.521z"/>
						<path style="fill:#7C7F82;" d="M233.192,157.747l20.963-11.926c0,0-0.193,1.881-2.42,3.772
							c-1.163,0.47-2.304,0.995-3.418,1.574c-1.072,0.557-2.12,1.162-3.144,1.804c-1.034,0.649-2.027,1.355-3.038,2.04
							c-1.939,1.314-3.961,2.662-5.417,4.53c-0.688,0.883-1.17,1.87-1.426,2.961c-0.252,1.075-0.281,2.19-0.216,3.288
							c0.136,2.298,0.678,4.554,1.093,6.813c0.199,1.084,0.434,2.189,0.891,3.198c0.341,0.753,0.838,1.459,1.571,1.871
							c0.819,0.461,1.787,0.506,2.701,0.396c0.861-0.103,1.683-0.387,2.541-0.505c1.307-0.179,2.662-0.181,3.965,0.034
							c0.612,0.101,1.224,0.257,1.786,0.523c0.448,0.212,0.888,0.515,1.148,0.948c0.225,0.375,0.281,0.774,0.228,1.174
							c-0.095,0.15-0.204,0.298-0.335,0.444c-1.744,1.952-11.839,4.982-15.247,4.474c0,0-2.441,0.155-1.944-2.347
							c0.497-2.502,1.209-7.394,0.042-12.356C232.35,165.494,231.354,159.837,233.192,157.747z"/>
						<g>
							<path style="fill:#AFB1B4;" d="M283.433,128.428l0.709,2.009l-22.088,11.561c0,0-2.343,1.443-3.4-1.112
								c-0.879-2.125,2.439-3.497,3.138-3.839c0.699-0.341,20.27-10.956,20.27-10.956L283.433,128.428z"/>
							<path style="fill:#231F20;" d="M259.967,142.442c-0.627-0.203-1.112-0.709-1.44-1.504c-0.869-2.102,2.066-3.48,3.031-3.932
								c0.068-0.032,0.127-0.06,0.174-0.083c0.688-0.336,20.069-10.847,20.265-10.953c0.065-0.035,0.147-0.013,0.184,0.051
								l1.371,2.337c0.004,0.008,0.008,0.016,0.011,0.024l0.709,2.009c0.023,0.065-0.005,0.136-0.066,0.168l-22.08,11.556
								c-0.022,0.014-0.293,0.178-0.689,0.298C261.034,142.536,260.5,142.614,259.967,142.442z M283.308,128.486l-1.297-2.211
								c-1.776,0.963-19.485,10.567-20.158,10.895c-0.048,0.023-0.108,0.052-0.178,0.084c-0.906,0.425-3.662,1.719-2.893,3.578
								c0.296,0.716,0.723,1.169,1.269,1.346c0.932,0.303,1.922-0.293,1.94-0.304l21.983-11.505L283.308,128.486z"/>
						</g>
						<path style="fill:#AFB1B4;" d="M271.2,136.193c1.156-0.553,2.31-1.108,3.459-1.674c0.88-0.433,1.749-0.89,2.643-1.296
							c0.818-0.371,1.64-0.741,2.406-1.213c0.686-0.423,1.394-0.946,1.77-1.679c0.383-0.747,0.234-1.635,0.252-2.443
							c0.009-0.393,0.057-0.785,0.221-1.147c0.067-0.148,0.153-0.285,0.25-0.414l1.232,2.101l0.709,2.009l-22.088,11.56
							c0,0-1.416,0.871-2.542,0.06C261.063,141.189,268.87,137.307,271.2,136.193z"/>
						<path style="fill:#AFB1B4;" d="M261.793,137.047c0.699-0.341,20.27-10.956,20.27-10.956l1.371,2.337l0.709,2.009l-0.449,0.235
							c-0.36-0.106-0.708-0.304-1.018-0.487c-0.348-0.206-0.69-0.424-1.055-0.598c-0.323-0.154-0.684-0.278-1.046-0.235
							c-0.546,0.064-1.07,0.283-1.556,0.529c-0.533,0.27-1.039,0.591-1.542,0.915c-0.511,0.329-1.023,0.643-1.554,0.939
							c-0.704,0.393-1.406,0.788-2.108,1.183c-1.409,0.793-2.819,1.582-4.216,2.396c-1.413,0.823-2.831,1.638-4.246,2.457
							c-0.707,0.409-1.414,0.819-2.119,1.232c-0.319,0.186-0.634,0.38-0.956,0.56c-0.241,0.135-0.489,0.257-0.732,0.388
							c-0.486,0.262-1.024,0.559-1.345,1.024c-0.216,0.312-0.321,0.756-0.181,1.12c0.038,0.098,0.094,0.184,0.161,0.26
							c-0.562-0.125-1.132-0.521-1.524-1.47C257.776,138.761,261.094,137.388,261.793,137.047z"/>
						<path style="fill:#231F20;" d="M258.067,139.267c0.01-0.003,0.019-0.007,0.028-0.012l2.266-1.299
							c0.066-0.038,0.089-0.122,0.051-0.188c-0.038-0.066-0.122-0.088-0.188-0.051l-2.244,1.287c-0.2,0.032-1.684,0.198-3.014-1.576
							c-1.493-1.99-1.979-4.715-1.001-5.607c0.056-0.051,0.06-0.138,0.009-0.194c-0.051-0.056-0.138-0.06-0.195-0.009
							c-1.195,1.089-0.476,4.053,0.966,5.975c1.508,2.011,3.236,1.692,3.309,1.677C258.058,139.27,258.062,139.268,258.067,139.267z
							"/>
						<g>
							<g>
								<path style="fill:#7C7F82;" d="M253.542,135.376c0.388,1.223,1.155,2.413,2.193,3.183c0.457,0.339,0.996,0.599,1.57,0.64
									c0.461,0.033,0.902-0.091,1.291-0.32c0.086,0.17,0.168,0.343,0.248,0.519c-0.14,0.504-0.219,1.031-0.16,1.541
									c0.037,0.317,0.145,0.643,0.379,0.87c0.152,0.148,0.338,0.237,0.537,0.286c0.024,0.98-0.34,1.552-0.649,1.858
									c-0.37,0.009-2.294-0.122-4.036-3.575c-1.678-3.326-1.876-4.724-1.566-5.454l0.062-0.038
									C253.447,135.053,253.491,135.217,253.542,135.376z"/>
								<path style="fill:#231F20;" d="M258.955,144.091c-0.383,0.009-2.384-0.124-4.162-3.65c-1.478-2.93-1.962-4.648-1.57-5.57
									c0.011-0.027,0.031-0.049,0.055-0.064l0.062-0.037c0.038-0.023,0.085-0.027,0.126-0.009c0.041,0.018,0.071,0.054,0.08,0.098
									c0.034,0.157,0.077,0.318,0.127,0.476l0,0c0.402,1.267,1.183,2.402,2.143,3.114c0.502,0.372,1.006,0.578,1.498,0.613
									c0.408,0.029,0.827-0.075,1.211-0.301c0.033-0.019,0.072-0.024,0.109-0.013c0.037,0.011,0.067,0.036,0.084,0.07
									c0.089,0.178,0.174,0.354,0.251,0.524c0.013,0.029,0.016,0.063,0.007,0.094c-0.156,0.562-0.207,1.049-0.156,1.488
									c0.028,0.236,0.109,0.564,0.338,0.787c0.123,0.119,0.283,0.204,0.474,0.252c0.06,0.015,0.103,0.068,0.105,0.13
									c0.026,1.029-0.361,1.633-0.689,1.959c-0.016,0.016-0.036,0.027-0.057,0.034
									C258.98,144.089,258.967,144.091,258.955,144.091z M258.967,141.908c-0.228-0.221-0.373-0.551-0.42-0.953
									c-0.054-0.462-0.005-0.968,0.15-1.545c-0.051-0.111-0.105-0.225-0.162-0.341c-0.397,0.205-0.823,0.297-1.241,0.267
									c-0.546-0.039-1.098-0.263-1.642-0.667c-1.006-0.746-1.823-1.931-2.242-3.252c-0.009-0.029-0.018-0.057-0.027-0.086
									c-0.122,0.919,0.414,2.525,1.655,4.985c1.63,3.231,3.394,3.49,3.855,3.499c0.27-0.285,0.567-0.787,0.57-1.616
									C259.269,142.137,259.102,142.039,258.967,141.908z"/>
							</g>
						</g>
						<g>
							<path style="fill:#AFB1B4;" d="M253.411,134.888c0.036,0.166,0.08,0.329,0.13,0.489c0.229,0.72,0.589,1.428,1.058,2.047
								c0.026,0.152,0.055,0.303,0.089,0.453c0.217,0.971,0.589,1.917,1.167,2.73c0.342,0.481,0.777,0.88,1.227,1.258
								c0.493,0.415,1.024,0.817,1.616,1.081c0.229,0.102,0.503,0.189,0.758,0.179c-0.13,0.384-0.327,0.652-0.506,0.83
								c-0.37,0.009-2.294-0.122-4.036-3.575c-1.678-3.326-1.876-4.724-1.566-5.454L253.411,134.888z"/>
						</g>
						<g>
							<path style="fill:#AFB1B4;" d="M282.062,126.091c-0.739,0.354-0.872,1.613-0.297,2.813c0.575,1.2,1.639,1.887,2.378,1.533
								c0.739-0.354,0.872-1.613,0.297-2.813C283.866,126.423,282.801,125.737,282.062,126.091z"/>
							<path style="fill:#231F20;" d="M281.641,128.963c-0.289-0.603-0.415-1.242-0.357-1.798c0.061-0.581,0.317-1.006,0.719-1.199
								c0.402-0.192,0.894-0.124,1.384,0.192c0.47,0.303,0.888,0.802,1.177,1.405c0.606,1.267,0.444,2.611-0.362,2.997
								c-0.048,0.023-0.096,0.042-0.146,0.057C283.262,130.86,282.211,130.155,281.641,128.963z M282.122,126.215L282.122,126.215
								c-0.313,0.15-0.513,0.497-0.564,0.979c-0.053,0.506,0.064,1.092,0.331,1.65c0.541,1.13,1.524,1.788,2.194,1.468
								c0.669-0.32,0.773-1.5,0.233-2.63c-0.267-0.558-0.65-1.017-1.078-1.293c-0.361-0.232-0.712-0.308-1.005-0.219
								C282.195,126.183,282.158,126.198,282.122,126.215z"/>
						</g>
						<path style="fill:#231F20;" d="M282.627,127.115c-0.432,0.207-0.51,0.943-0.174,1.644c0.336,0.702,0.958,1.103,1.39,0.896
							c0.432-0.207,0.51-0.943,0.174-1.644C283.681,127.309,283.059,126.908,282.627,127.115z"/>
						<g>
							<path style="fill:#AFB1B4;" d="M279.145,116.469c-1.502,0.719-1.773,3.28-0.605,5.72c1.168,2.44,3.333,3.836,4.835,3.117
								c1.502-0.719,1.773-3.28,0.605-5.72C282.811,117.145,280.646,115.75,279.145,116.469z"/>
							<path style="fill:#231F20;" d="M280.757,125.048c-0.934-0.602-1.766-1.596-2.341-2.799c-0.576-1.203-0.829-2.474-0.712-3.579
								c0.119-1.13,0.61-1.955,1.381-2.324c0.771-0.369,1.722-0.233,2.676,0.382c0.934,0.602,1.766,1.596,2.341,2.799
								c1.199,2.505,0.899,5.153-0.669,5.904c-0.093,0.045-0.189,0.082-0.286,0.112
								C282.433,125.759,281.597,125.589,280.757,125.048z M279.204,116.593c-0.682,0.326-1.117,1.074-1.226,2.105
								c-0.112,1.055,0.132,2.274,0.686,3.432c0.554,1.158,1.35,2.112,2.242,2.687c0.871,0.562,1.725,0.692,2.408,0.365
								c1.431-0.685,1.673-3.169,0.54-5.537c-0.554-1.158-1.35-2.112-2.242-2.687c-0.769-0.496-1.526-0.655-2.162-0.461
								C279.366,116.523,279.284,116.555,279.204,116.593z"/>
						</g>
						<path style="fill:#231F20;" d="M280.293,118.551c-0.878,0.42-1.036,1.917-0.353,3.344c0.683,1.426,1.948,2.242,2.826,1.822
							c0.878-0.42,1.036-1.917,0.354-3.344C282.436,118.946,281.171,118.131,280.293,118.551z"/>
						<path style="fill:#231F20;" d="M250.326,180.147c0,0,1.369-1.701-1.285-3.013c-2.654-1.311-13.252,3.458-13.948,3.97
							c-0.696,0.511-1.41,1.849-1.206,2.293c0,0,0.434-1.226,2.42-2.199c1.987-0.973,11.031-3.506,11.031-3.506
							S250.251,176.848,250.326,180.147z"/>
						<g>
							<path style="fill:#AFB1B4;" d="M256.192,146.405c0,0-4.389,3.59-3.601,5.551c0.788,1.961,4.436,7.303,0.603,10.97
								c-3.833,3.667-9.171,1.532-10.78-1.601c0,0-0.648-1.976,0.082-2.786c0.495-0.549,2.462-0.036,2.462-0.038
								c-0.279,0.609,0.814,2.339,1.118,2.805c2.123,3.259,4.402,2.473,5.548-0.978c0.815-2.452,0.156-4.968-1.585-6.872
								c-1.126-1.231-0.871-2.729,0.323-3.433c0.68-0.402,2.488-3.335,3.91-4.224C255.344,145.13,256.192,146.405,256.192,146.405z"
								/>
							<path style="fill:#231F20;" d="M247.375,164.898c-2.182-0.367-4.178-1.744-5.084-3.509c-0.003-0.006-0.006-0.013-0.008-0.02
								c-0.027-0.084-0.664-2.061,0.111-2.921c0.474-0.525,1.961-0.234,2.592-0.081c0.01,0.002,0.02,0.005,0.029,0.009
								c0.069,0.031,0.1,0.111,0.07,0.181c0,0.001-0.001,0.001-0.001,0.002c-0.161,0.352,0.263,1.376,1.108,2.672
								c0.928,1.425,1.912,2.115,2.845,1.994c0.997-0.129,1.87-1.173,2.457-2.94c0.78-2.347,0.213-4.802-1.555-6.736
								c-0.581-0.634-0.842-1.376-0.735-2.089c0.096-0.646,0.483-1.199,1.089-1.556c0.26-0.154,0.758-0.783,1.285-1.45
								c0.789-0.998,1.771-2.24,2.622-2.772c0.939-0.587,1.789,0.166,2.108,0.646c0.039,0.059,0.027,0.138-0.027,0.183
								c-0.011,0.009-1.102,0.905-2.082,2.027c-1.269,1.452-1.78,2.617-1.479,3.367c0.118,0.293,0.302,0.666,0.516,1.099
								c1.181,2.391,3.379,6.842,0.055,10.022c-0.839,0.803-1.798,1.369-2.824,1.682
								C249.482,165.008,248.437,165.076,247.375,164.898z M254.344,145.917c-0.811,0.507-1.776,1.728-2.552,2.709
								c-0.59,0.747-1.056,1.336-1.361,1.516c-0.533,0.315-0.873,0.798-0.957,1.36c-0.094,0.628,0.143,1.29,0.666,1.862
								c1.837,2.009,2.426,4.563,1.613,7.008c-0.622,1.873-1.575,2.984-2.683,3.127c-0.729,0.094-1.86-0.197-3.111-2.117
								c-0.5-0.768-1.277-2.094-1.173-2.779c-0.855-0.194-1.897-0.295-2.189,0.029c-0.643,0.714-0.104,2.491-0.057,2.641
								c0.87,1.686,2.785,3.001,4.88,3.353c2.083,0.35,4.099-0.289,5.677-1.799c3.178-3.041,1.119-7.21-0.111-9.701
								c-0.216-0.438-0.403-0.816-0.524-1.118c-0.757-1.884,2.866-5.056,3.541-5.625
								C255.788,146.112,255.131,145.425,254.344,145.917z"/>
						</g>
						<path style="fill:#7C7F82;" d="M242.496,158.54c0.495-0.549,2.462-0.036,2.462-0.038c-0.279,0.609,0.814,2.339,1.118,2.805
							c2.123,3.259,4.402,2.473,5.548-0.978c0.815-2.453,0.156-4.968-1.585-6.872c-1.126-1.231-0.871-2.729,0.323-3.433
							c0.68-0.402,2.488-3.335,3.91-4.224c1.072-0.67,1.92,0.605,1.92,0.605s-4.389,3.59-3.601,5.551
							c0.126,0.315,0.327,0.718,0.558,1.186c-0.522-0.181-1.053-0.314-1.615-0.276c-0.066,0.005-0.089,0.084-0.069,0.135
							c0.304,0.789,0.741,1.516,1.108,2.275c0.329,0.68,0.578,1.384,0.692,2.133c0.098,0.642,0.099,1.296,0,1.939
							c-0.201,1.302-0.813,2.494-1.549,3.572c-0.053,0.078,0.034,0.183,0.12,0.141c0.461-0.223,0.911-0.469,1.347-0.737
							c0.355-0.218,0.702-0.452,1.036-0.703c-0.257,0.452-0.592,0.89-1.026,1.306c-3.833,3.667-9.171,1.532-10.78-1.601
							C242.414,161.326,241.765,159.35,242.496,158.54z"/>
						<g>
							<path style="fill:#7C7F82;" d="M253.802,146.189c0,0-4.389,3.59-3.601,5.551c0.788,1.961,4.436,7.303,0.603,10.97
								c-3.833,3.667-7.654,0.947-9.262-2.185c0,0,1.025-2.236,1.027-2.24c-0.279,0.609,0.814,2.339,1.118,2.805
								c2.123,3.259,5.977,2.258,7.124-1.192c0.815-2.453-0.358-5.948-2.712-7.163c-1.483-0.765-1.319-2.223-0.125-2.928
								C249.166,149.102,253.802,146.189,253.802,146.189z"/>
							<path style="fill:#231F20;" d="M246.206,164.545c-2.223-0.374-3.931-2.289-4.788-3.957c-0.019-0.038-0.02-0.082-0.003-0.12
								c0.373-0.814,0.994-2.166,1.027-2.238c0-0.001,0.001-0.001,0.001-0.002l0,0c0-0.001,0.001-0.001,0.001-0.001
								c0.032-0.069,0.114-0.098,0.183-0.066c0.069,0.032,0.099,0.113,0.067,0.182c-0.161,0.352,0.263,1.376,1.108,2.673
								c0.9,1.381,2.198,2.073,3.562,1.897c1.483-0.191,2.753-1.363,3.316-3.057c0.836-2.516-0.425-5.851-2.645-6.997
								c-0.717-0.37-1.122-0.922-1.14-1.555c-0.018-0.627,0.359-1.231,1.008-1.614c1.178-0.696,5.78-3.587,5.826-3.616
								c0.061-0.039,0.143-0.023,0.185,0.036c0.042,0.059,0.032,0.141-0.025,0.187c-0.011,0.009-1.102,0.905-2.082,2.027
								c-1.269,1.452-1.78,2.617-1.479,3.367c0.118,0.293,0.302,0.667,0.516,1.099c1.181,2.391,3.379,6.841,0.055,10.022
								c-0.831,0.795-1.69,1.328-2.57,1.596C247.633,164.619,246.924,164.665,246.206,164.545z M248.043,149.926
								c-0.562,0.332-0.888,0.844-0.873,1.369c0.015,0.528,0.367,0.996,0.991,1.318c2.33,1.202,3.654,4.695,2.78,7.329
								c-0.596,1.796-1.952,3.038-3.542,3.243c-1.472,0.19-2.868-0.546-3.828-2.02c-0.394-0.605-0.96-1.557-1.132-2.268
								c-0.26,0.566-0.639,1.394-0.745,1.624c0.836,1.594,2.46,3.399,4.557,3.752c1.535,0.258,3.035-0.301,4.457-1.662
								c3.178-3.041,1.119-7.21-0.111-9.701c-0.216-0.438-0.403-0.816-0.524-1.119c-0.55-1.369,1.213-3.419,2.477-4.655
								C251.082,148.055,248.82,149.466,248.043,149.926z"/>
						</g>
						<path style="fill:#7C7F82;" d="M247.973,149.807c1.193-0.705,5.83-3.618,5.83-3.618s-2.205,1.805-3.208,3.554
							c-0.439,0.123-0.884,0.325-1.155,0.704c-0.236,0.329-0.279,0.741-0.221,1.133c0.07,0.469,0.265,0.917,0.478,1.337
							c0.244,0.481,0.528,0.941,0.812,1.399c0.258,0.417,0.524,0.832,0.748,1.269c0.273,0.534,0.405,1.117,0.472,1.711
							c0.192,1.712-0.213,3.552-1.445,4.808c-0.5,0.51-1.153,0.878-1.871,0.948c-0.258,0.025-0.512,0.005-0.758-0.05
							c1.357-0.287,2.589-1.394,3.157-3.103c0.815-2.453-0.358-5.948-2.712-7.163C246.615,151.97,246.779,150.512,247.973,149.807z"
							/>
					</g>
					<g>
						<path style="fill:#AFB1B4;" d="M242.293,141.652l11.056-6.727c-0.31,0.729-0.112,2.128,1.566,5.454
							c1.742,3.453,3.666,3.583,4.036,3.575c-0.223,0.221-0.417,0.305-0.417,0.305s-11.535,7.115-12.397,7.337
							c-0.862,0.221-3.379-2.538-4.35-4.91C240.459,143.44,242.293,141.652,242.293,141.652z"/>
						<path style="fill:#231F20;" d="M246.172,151.729c-0.96,0.246-3.533-2.599-4.512-4.991c-1.348-3.293,0.518-5.166,0.537-5.184
							c0.008-0.007,0.016-0.014,0.025-0.019l11.056-6.727c0.052-0.031,0.116-0.025,0.162,0.014c0.045,0.039,0.06,0.103,0.036,0.158
							c-0.353,0.829,0.144,2.525,1.562,5.338c1.704,3.378,3.556,3.507,3.91,3.499c0.056-0.001,0.108,0.032,0.13,0.084
							c0.022,0.052,0.01,0.112-0.03,0.152c-0.212,0.21-0.402,0.307-0.448,0.329c-0.562,0.347-11.426,7.043-12.411,7.344
							C246.183,151.726,246.177,151.727,246.172,151.729z M254.793,140.441c-1.307-2.59-1.837-4.233-1.671-5.216l-10.742,6.536
							c-0.067,0.069-0.452,0.492-0.707,1.236c-0.259,0.756-0.427,2,0.243,3.637c0.965,2.358,3.428,5.024,4.188,4.829
							c0.005-0.001,0.009-0.003,0.015-0.004c0.756-0.231,8.388-4.876,12.344-7.316c0.005-0.003,0.011-0.006,0.017-0.009
							c0.001-0.001,0.048-0.022,0.121-0.069C257.857,143.942,256.25,143.331,254.793,140.441z"/>
					</g>
					<path style="fill:#AFB1B4;" d="M253.628,146.982c0.72-0.481,1.435-0.974,2.126-1.498c0.372-0.282,0.828-0.62,0.966-1.091
						c0.146-0.501-0.164-0.976-0.48-1.338c-0.277-0.318-0.595-0.597-0.868-0.92c-0.29-0.343-0.552-0.708-0.787-1.091
						c-0.469-0.764-0.833-1.589-1.124-2.435c-0.14-0.407-0.28-0.823-0.373-1.244c-0.084-0.381-0.123-0.771-0.182-1.156
						c-0.046-0.3-0.101-0.604-0.198-0.893l0.643-0.391c-0.31,0.729-0.112,2.128,1.566,5.454c1.742,3.453,3.666,3.583,4.036,3.575
						c-0.223,0.221-0.417,0.305-0.417,0.305s-4.964,3.062-8.623,5.231C251.114,148.604,252.386,147.81,253.628,146.982z"/>
					<path style="fill:#AFB1B4;" d="M242.293,141.652l1.571-0.956c-0.267,0.503-0.478,1.036-0.615,1.592
						c-0.228,0.928-0.261,1.883-0.056,2.818c0.188,0.857,0.56,1.675,1.095,2.372c0.536,0.697,1.245,1.269,2.057,1.613
						c0.75,0.318,1.571,0.407,2.376,0.312c0.813-0.096,1.599-0.368,2.34-0.708c0.3-0.137,0.598-0.281,0.894-0.428
						c-2.757,1.659-5.421,3.225-5.818,3.327c-0.862,0.221-3.379-2.538-4.35-4.91C240.459,143.44,242.293,141.652,242.293,141.652z"
						/>
					<g>
						<g>
							<path style="fill:#7C7F82;" d="M254.482,142.416c0.489,0.556,1.026,1.073,1.603,1.537l-8.896,5.368
								c0,0-1.225,0.455-1.563-0.386c-0.338-0.84,0.451-1.214,0.961-1.625C247.015,146.966,252.654,143.528,254.482,142.416z"/>
							<path style="fill:#231F20;" d="M245.499,148.986c-0.324-0.807,0.272-1.243,0.751-1.594c0.087-0.064,0.173-0.126,0.252-0.19
								c0.423-0.341,5.672-3.544,7.91-4.905c0.058-0.035,0.131-0.023,0.175,0.027c0.489,0.556,1.023,1.067,1.586,1.521
								c0.035,0.028,0.054,0.072,0.051,0.117c-0.003,0.045-0.028,0.085-0.066,0.108l-8.896,5.368
								c-0.007,0.004-0.015,0.008-0.023,0.011c-0.033,0.012-0.069,0.025-0.107,0.036
								C246.635,149.637,245.783,149.695,245.499,148.986z M255.847,143.936c-0.49-0.408-0.957-0.859-1.391-1.343
								c-1.848,1.125-7.367,4.49-7.782,4.824c-0.082,0.066-0.171,0.132-0.262,0.198c-0.464,0.34-0.902,0.66-0.658,1.269
								c0.268,0.667,1.259,0.352,1.376,0.312L255.847,143.936z"/>
						</g>
						<g>
							<path style="fill:#7C7F82;" d="M244.912,144.867c0.427-0.345,6.071-3.785,7.897-4.895c0.318,0.642,0.713,1.248,1.15,1.81
								l-8.446,5.096c0,0-1.225,0.455-1.563-0.386C243.613,145.652,244.401,145.279,244.912,144.867z"/>
							<path style="fill:#231F20;" d="M243.823,146.544c-0.324-0.807,0.272-1.243,0.751-1.594c0.087-0.064,0.173-0.126,0.252-0.19
								c0.423-0.341,5.674-3.544,7.912-4.906c0.033-0.02,0.073-0.025,0.11-0.015c0.037,0.011,0.068,0.036,0.085,0.071
								c0.296,0.597,0.678,1.199,1.135,1.787c0.024,0.031,0.034,0.071,0.027,0.11c-0.007,0.039-0.031,0.072-0.064,0.093
								l-8.445,5.096c-0.007,0.004-0.015,0.008-0.023,0.011c-0.033,0.012-0.069,0.025-0.107,0.036
								C244.96,147.194,244.107,147.253,243.823,146.544z M253.756,141.744c-0.394-0.52-0.73-1.049-1.003-1.577
								c-1.877,1.142-7.343,4.475-7.755,4.808l0,0c-0.082,0.066-0.171,0.132-0.262,0.198c-0.464,0.339-0.902,0.66-0.658,1.269
								c0.268,0.667,1.259,0.352,1.376,0.312L253.756,141.744z"/>
						</g>
						<g>
							<path style="fill:#7C7F82;" d="M244.36,141.672c0.412-0.332,5.661-3.535,7.679-4.763c-0.007,0.45,0.043,0.901,0.143,1.34
								c0.07,0.31,0.164,0.614,0.274,0.911l-7.495,4.522c0,0-1.225,0.455-1.563-0.386
								C243.061,142.457,243.85,142.084,244.36,141.672z"/>
							<path style="fill:#231F20;" d="M243.271,143.349c-0.324-0.807,0.272-1.243,0.751-1.594c0.087-0.064,0.173-0.126,0.252-0.19
								l0,0c0.414-0.334,5.519-3.449,7.694-4.773c0.043-0.026,0.096-0.027,0.14-0.002s0.07,0.072,0.069,0.122
								c-0.006,0.43,0.04,0.87,0.139,1.308c0.065,0.287,0.153,0.579,0.269,0.894c0.023,0.062-0.001,0.132-0.058,0.166l-7.495,4.522
								c-0.007,0.004-0.015,0.008-0.023,0.011c-0.033,0.012-0.069,0.025-0.107,0.036
								C244.408,143.999,243.556,144.058,243.271,143.349z M252.288,139.102c-0.101-0.286-0.18-0.556-0.24-0.822
								c-0.085-0.376-0.133-0.754-0.144-1.127c-1.898,1.156-7.06,4.306-7.457,4.626c-0.082,0.066-0.171,0.132-0.262,0.198
								c-0.464,0.34-0.902,0.66-0.658,1.269c0.268,0.667,1.259,0.352,1.376,0.312L252.288,139.102z"/>
						</g>
						<g>
							<path style="fill:#AFB1B4;" d="M246.508,148.093c0.338,0.84,1.563,0.386,1.563,0.386l7.8-4.706
								c0.072,0.06,0.142,0.122,0.215,0.181l-8.896,5.368c0,0-1.225,0.455-1.563-0.386c-0.319-0.795,0.368-1.172,0.875-1.558
								C246.41,147.575,246.393,147.806,246.508,148.093z"/>
							<path style="fill:#AFB1B4;" d="M244.832,145.65c0.338,0.84,1.563,0.386,1.563,0.386l7.405-4.468
								c0.053,0.071,0.105,0.144,0.159,0.214l-8.446,5.096c0,0-1.225,0.455-1.563-0.386c-0.319-0.795,0.368-1.171,0.875-1.558
								C244.735,145.132,244.717,145.364,244.832,145.65z"/>
							<path style="fill:#AFB1B4;" d="M244.274,141.74c-0.091,0.198-0.109,0.429,0.006,0.716c0.338,0.84,1.563,0.386,1.563,0.386
								l6.526-3.938c0.029,0.086,0.056,0.173,0.087,0.258l-7.495,4.522c0,0-1.225,0.455-1.563-0.386
								C243.08,142.503,243.767,142.126,244.274,141.74z"/>
							<g>
								<path style="fill:#7C7F82;" d="M246.508,148.093c-0.115-0.286-0.097-0.518-0.006-0.716c0.029-0.022,0.058-0.045,0.086-0.067
									c0.427-0.344,6.067-3.782,7.895-4.894c0.427,0.485,0.893,0.939,1.388,1.357l-7.8,4.706
									C248.071,148.479,246.846,148.933,246.508,148.093z"/>
								<path style="fill:#231F20;" d="M246.38,148.144L246.38,148.144c-0.12-0.299-0.121-0.569-0.004-0.825
									c0.009-0.02,0.024-0.038,0.041-0.052c0.028-0.021,0.056-0.043,0.083-0.065c0.423-0.341,5.672-3.544,7.91-4.905
									c0.058-0.035,0.131-0.023,0.175,0.027c0.417,0.474,0.88,0.926,1.374,1.342c0.034,0.029,0.052,0.072,0.049,0.116
									c-0.004,0.044-0.028,0.084-0.066,0.107l-7.8,4.706c-0.007,0.005-0.015,0.008-0.023,0.011
									c-0.033,0.012-0.069,0.025-0.107,0.036C247.517,148.795,246.665,148.853,246.38,148.144z M255.636,143.753
									c-0.42-0.365-0.816-0.754-1.18-1.16c-1.848,1.125-7.367,4.49-7.781,4.824c-0.02,0.016-0.04,0.032-0.061,0.048
									c-0.072,0.177-0.065,0.361,0.022,0.577l0,0c0.268,0.667,1.259,0.352,1.376,0.312L255.636,143.753z M246.507,148.093l0.001,0
									L246.507,148.093z"/>
							</g>
						</g>
					</g>
				</g>
			</g>
			<path style="fill:#AFB1B4;" d="M239.988,157.636c1.428-1.332,3.078-2.408,4.834-3.256c-1.183,1.033-2.46,1.959-3.596,3.047
				c-0.613,0.588-1.185,1.225-1.653,1.936c-0.487,0.739-0.852,1.55-1.073,2.407c-0.454,1.761-0.59,3.589-0.617,5.402
				c-0.007,0.447-0.013,0.896-0.002,1.343c0.011,0.481,0.055,0.964,0.092,1.443c0.072,0.941,0.154,1.884,0.284,2.819
				c0.133,0.959,0.153,1.963,0.323,2.927c-0.045-0.048-0.081-0.106-0.105-0.162c-0.685-1.622-1.066-3.352-1.46-5.062
				c-0.34-1.474-0.616-2.967-0.696-4.48c-0.078-1.471,0.078-2.986,0.638-4.358C237.595,160.076,238.764,158.777,239.988,157.636z"/>
		</g>
		<path style="fill:#456573;" d="M246.728,158.801c-0.618-0.444-1.675-0.14-2.343-0.02c-2.45,0.441-4.824,1.245-7.259,1.765
			c-1.263,0.27-2.527,0.492-3.808,0.654c-0.501,0.063-1.01,0.163-1.521,0.237c-0.013-0.005-0.027-0.009-0.047-0.009
			c-0.255,0.001-0.503,0.035-0.743,0.092c-0.24,0.014-0.48,0.014-0.719-0.004c0.375,0.201,0.772,0.349,1.212,0.382
			c0.167,0.012,0.294,0.228,0.148,0.357c-0.832,0.738-1.319,1.73-1.514,2.817c-0.292,1.621-0.004,3.386,0.609,4.904
			c0.337,0.835,0.847,1.666,1.554,2.198c0.539-0.118,1.001-0.435,1.401-0.849c0.651-0.674,1.255-1.38,1.94-2.024
			c0.826-0.775,1.696-1.501,2.596-2.188c1.584-1.209,3.287-2.204,4.957-3.284c1.374-0.889,3.02-2.014,3.696-3.571
			C247.088,159.797,247.201,159.141,246.728,158.801z"/>
		<path style="fill:#6A8CA3;" d="M246.056,160.767c-0.496,0.704-1.162,1.292-1.842,1.811c-1.345,1.026-2.829,1.846-4.222,2.802
			c-1.601,1.099-3.145,2.283-4.566,3.608c-0.657,0.612-1.25,1.271-1.861,1.927c-0.55,0.59-1.134,0.948-1.965,0.808
			c-1.282-0.216-2.184-1.219-2.759-2.322c-0.67-1.285-0.965-2.858-0.634-4.282c0.378-1.627,1.438-2.939,3.034-3.355
			c0.323-0.015,0.646-0.049,0.963-0.088c0.929-0.114,1.861-0.2,2.787-0.336c2.012-0.297,4.001-0.747,5.965-1.267
			c0.964-0.255,1.926-0.518,2.903-0.717c0.465-0.095,0.933-0.177,1.404-0.232c0.333-0.039,0.843-0.126,1.11,0.149
			C246.765,159.676,246.301,160.419,246.056,160.767z"/>
		<path style="opacity:0.65;fill:#6A8CA3;" d="M235.863,161.195c-0.291,0.049-0.581,0.102-0.872,0.145
			c-0.511,0.075-1.024,0.135-1.537,0.193c0.759-0.034,1.521-0.168,2.207-0.298C235.729,161.221,235.796,161.208,235.863,161.195z"/>
		<path style="opacity:0.65;fill:#6A8CA3;" d="M246.374,159.272c-0.267-0.275-0.776-0.188-1.11-0.149
			c-0.471,0.055-0.939,0.138-1.404,0.232c-0.977,0.199-1.939,0.462-2.903,0.717c-1.019,0.27-2.044,0.519-3.076,0.739
			c0.727-0.123,1.458-0.216,2.2-0.235c0.571-0.015,1.476-0.01,1.776,0.59c0.354,0.708-0.521,1.395-0.942,1.837
			c-0.823,0.866-1.697,1.684-2.531,2.54c-0.8,0.82-1.553,1.68-2.331,2.52c-0.625,0.674-1.312,1.384-1.854,2.169
			c0.397-0.425,0.798-0.845,1.226-1.245c1.422-1.325,2.966-2.509,4.566-3.608c1.393-0.956,2.877-1.776,4.222-2.802
			c0.68-0.519,1.346-1.108,1.842-1.811C246.301,160.419,246.765,159.676,246.374,159.272z"/>
	</g>
	<g>
		<g>
			<g>
				<g>
					<path style="fill:#6A8CA3;" d="M186.772,206.912c-3.305,0.256-6.398,1.944-9.19,3.614c-2.978,1.781-5.915,3.664-8.691,5.746
						c-2.968,2.225-5.762,4.698-8.234,7.468c-5.192,5.817-11.467,14.755-10.833,22.967c0.573,7.424,5.265,13.684,10.989,18.12
						c6.663,5.164,14.635,7.398,22.654,9.49c4.53,1.182-0.382-4.815-1.244-6.17c-0.661-1.804-2.319-3.643-3.354-5.27
						c-1.087-1.707-2.214-3.403-3.205-5.159c-2.016-3.574-3.96-7.28-4.528-11.401c-0.802-5.822,1.573-11.47,4.194-16.528
						c2.662-5.137,5.363-10.2,7.909-15.396c0.844-1.723,2.023-3.252,2.887-4.964c0.372-0.737,0.701-1.522,0.797-2.348
						C186.931,206.983,186.882,206.903,186.772,206.912z"/>
					<path style="fill:#536F82;" d="M184.46,274.784c-0.301,0-0.658-0.054-1.073-0.163c-8.62-2.249-16.282-4.52-22.767-9.546
						c-6.649-5.154-10.595-11.668-11.109-18.344c-0.678-8.789,6.546-18.308,10.912-23.201c2.332-2.612,5.117-5.139,8.28-7.51
						c2.477-1.857,5.247-3.689,8.718-5.764c2.729-1.631,5.924-3.394,9.327-3.658h0c0.142-0.011,0.271,0.035,0.363,0.131
						c0.094,0.098,0.139,0.239,0.122,0.388c-0.108,0.934-0.499,1.802-0.828,2.454c-0.426,0.843-0.931,1.65-1.419,2.431
						c-0.51,0.815-1.038,1.658-1.465,2.53c-1.891,3.86-3.903,7.714-5.849,11.441c-0.688,1.318-1.376,2.637-2.063,3.961
						c-2.505,4.834-4.958,10.557-4.161,16.34c0.56,4.062,2.525,7.804,4.49,11.289c0.771,1.368,1.643,2.724,2.485,4.035
						c0.238,0.37,0.476,0.74,0.711,1.11c0.331,0.52,0.723,1.058,1.139,1.628c0.869,1.191,1.768,2.422,2.233,3.67
						c0.123,0.19,0.327,0.476,0.563,0.805c1.675,2.343,3.121,4.53,2.43,5.534C185.296,274.638,184.953,274.784,184.46,274.784z
						 M186.579,207.245c-3.188,0.311-6.228,1.992-8.836,3.551c-3.452,2.064-6.205,3.884-8.663,5.728
						c-3.13,2.346-5.885,4.845-8.188,7.426c-4.3,4.817-11.414,14.176-10.754,22.733c0.501,6.497,4.361,12.852,10.867,17.895
						c6.39,4.953,13.989,7.203,22.54,9.435c0.763,0.199,1.286,0.19,1.434-0.024c0.498-0.724-1.624-3.694-2.423-4.812
						c-0.262-0.367-0.47-0.657-0.599-0.86c-0.012-0.019-0.022-0.04-0.03-0.061c-0.431-1.176-1.311-2.382-2.163-3.549
						c-0.422-0.578-0.82-1.124-1.162-1.661c-0.235-0.369-0.472-0.738-0.709-1.107c-0.848-1.319-1.724-2.682-2.504-4.066
						c-1.995-3.538-3.991-7.34-4.565-11.512c-0.822-5.958,1.675-11.794,4.226-16.716c0.686-1.325,1.375-2.644,2.064-3.963
						c1.944-3.724,3.954-7.574,5.841-11.427c0.442-0.902,0.978-1.759,1.497-2.587c0.481-0.768,0.979-1.563,1.391-2.38
						C186.123,208.731,186.453,208.007,186.579,207.245z M186.797,207.226L186.797,207.226
						C186.796,207.226,186.796,207.226,186.797,207.226C186.796,207.226,186.796,207.226,186.797,207.226z M186.772,206.912h0.003
						H186.772z"/>
				</g>
				<path style="fill:#6A8CA3;" d="M166.871,220.016c-1.886,1.736-3.712,3.567-5.393,5.503c-1.557,1.792-2.949,3.738-4.009,5.867
					c-0.875,1.757-1.499,3.621-1.862,5.545c1.068-2.142,2.394-4.15,3.843-6.052c1.56-2.047,3.262-3.981,4.995-5.883
					c1.739-1.908,3.486-3.798,5.372-5.563c2.798-2.619,5.77-5.068,8.508-7.752c-1.749,0.92-3.426,1.978-5.038,3.118
					C171.035,216.391,168.9,218.148,166.871,220.016z"/>
				<path style="opacity:0.65;fill:#6A8CA3;" d="M181.496,212.825c-2.415,2.481-4.624,5.167-6.557,8.04
					c-1.935,2.878-3.537,5.938-4.82,9.16c-1.344,3.376-2.348,6.918-2.542,10.562c-0.186,3.492,1.017,6.937,0.607,10.431
					c-0.015,0.124-1.048-0.171-1.441-0.332c-1.77-0.723-3.51-1.53-5.164-2.493c-1.68-0.978-3.289-2.116-4.621-3.541
					c-1.252-1.339-2.184-2.945-2.554-4.751c-0.418-2.039-0.135-4.18,0.398-6.169c0.491-1.833,1.193-3.618,2.05-5.329
					c-3.995,5.393-7.511,12.058-7.029,18.304c0.573,7.424,5.265,13.684,10.989,18.12c6.663,5.164,14.635,7.398,22.654,9.49
					c4.53,1.182-0.382-4.815-1.244-6.17c-0.661-1.804-2.319-3.643-3.354-5.27c-1.087-1.707-2.214-3.403-3.205-5.159
					c-2.016-3.574-3.96-7.28-4.528-11.401c-0.802-5.822,1.573-11.47,4.194-16.528c2.662-5.137,5.363-10.2,7.909-15.396
					c0.844-1.723,2.023-3.252,2.887-4.964c0.219-0.434,0.422-0.886,0.573-1.353C184.872,209.556,183.134,211.142,181.496,212.825z"
					/>
				<path style="opacity:0.65;fill:#6A8CA3;" d="M182.193,273.232c-0.938-0.306-1.865-0.644-2.793-0.977
					c-1.011-0.363-2.033-0.692-3.039-1.072c-2.1-0.794-4.156-1.704-6.159-2.719c-1.801-0.913-3.529-1.948-5.197-3.087
					c-3.244-2.215-6.249-4.844-8.604-8.003c-1.201-1.612-2.282-3.37-2.841-5.316c-0.51-1.775-0.449-3.596-0.185-5.407
					c0.14-0.963,0.28-1.891,0.098-2.859c-0.149-0.794-0.496-1.535-0.958-2.194c-0.502-0.716-1.11-1.344-1.752-1.941
					c-0.745,2.35-1.119,4.73-0.94,7.051c0.573,7.424,5.265,13.684,10.989,18.12c6.663,5.164,14.635,7.398,22.654,9.49
					c1.102,0.288,1.643,0.148,1.821-0.244C184.237,273.863,183.203,273.561,182.193,273.232z"/>
				<path style="opacity:0.65;fill:#6A8CA3;" d="M178.148,224.375c-2.389,3.401-4.649,6.916-6.24,10.768
					c-1.864,4.514-2.78,9.513-1.929,14.366c0.814,4.642,3.209,8.831,6.418,12.237c1.359,1.442,2.854,2.747,4.444,3.928
					c-0.669-0.968-1.414-1.913-1.975-2.796c-1.087-1.707-2.214-3.403-3.205-5.159c-2.016-3.574-3.96-7.28-4.528-11.401
					c-0.802-5.822,1.573-11.47,4.194-16.528C176.267,227.978,177.209,226.176,178.148,224.375z"/>
				<g>
					<g>
						<path style="fill:#6A8CA3;" d="M168.381,47.441c-0.396-0.193-0.793-0.381-1.191-0.567c-0.501-0.529-1.109-0.77-1.766-0.801
							c-2.063-0.098-5.025-2.055-7.033-2.746c-2.411-0.829-4.826-1.573-7.3-2.188c-5.3-1.317-10.672-2.346-16.084-3.083
							c-7.001-0.954-14.067-1.42-21.133-1.392c-5.974,0.024-14.357-0.76-19.728,2.327c-2.851,1.639-2.709,4.147-0.419,6.195
							c4.301,3.846,9.78,5.947,13.879,10.074c6.09,6.131,8.475,14.143,10.575,22.297c0.373,1.449,0.746,2.945,1.422,4.288
							c0.457,0.907,1.121,1.784,2.155,2.037c1.194,0.291,2.461-0.298,3.463-0.89c1.71-1.01,3.232-2.355,4.761-3.614
							c1.608-1.324,3.191-2.676,4.759-4.048c3.089-2.703,6.113-5.478,9.134-8.256c6.047-5.562,12.09-11.149,18.596-16.178
							c1.573-1.216,3.173-2.397,4.802-3.536c0.06-0.042,0.098-0.105,0.107-0.171c0.29,0.134,0.58,0.267,0.868,0.405
							C168.335,47.636,168.492,47.495,168.381,47.441z"/>
						<path style="fill:#536F82;" d="M122.41,84.272c-0.242,0-0.485-0.026-0.726-0.085c-0.961-0.234-1.733-0.954-2.361-2.201
							c-0.667-1.325-1.043-2.784-1.405-4.194l-0.041-0.157c-2.124-8.246-4.525-16.145-10.493-22.154
							c-2.18-2.194-4.813-3.846-7.359-5.443c-2.212-1.388-4.5-2.823-6.507-4.618c-1.295-1.158-1.937-2.477-1.808-3.715
							c0.122-1.167,0.91-2.2,2.28-2.988c4.55-2.614,11.297-2.496,16.721-2.403c1.115,0.02,2.171,0.037,3.163,0.034
							c7.056-0.031,14.178,0.441,21.176,1.395c5.412,0.737,10.835,1.777,16.117,3.089c2.289,0.569,4.686,1.287,7.326,2.195
							c0.742,0.255,1.592,0.67,2.492,1.109c1.499,0.731,3.198,1.56,4.453,1.62c0.763,0.036,1.415,0.324,1.937,0.855
							c0.382,0.179,0.763,0.36,1.143,0.545c0,0,0,0,0,0c0.193,0.094,0.269,0.309,0.176,0.5c-0.093,0.192-0.355,0.328-0.585,0.219
							c-0.205-0.099-0.412-0.194-0.618-0.29c-0.013,0.011-0.026,0.021-0.04,0.03c-1.58,1.106-3.192,2.292-4.79,3.528
							c-6.303,4.871-12.27,10.36-18.04,15.668l-0.535,0.492c-3.233,2.974-6.153,5.648-9.14,8.261
							c-1.686,1.475-3.245,2.801-4.766,4.054c-0.239,0.197-0.478,0.396-0.717,0.595c-1.288,1.073-2.62,2.182-4.084,3.047
							C124.61,83.718,123.523,84.272,122.41,84.272z M107.44,36.907c-4.602,0-9.598,0.323-13.137,2.356
							c-1.187,0.682-1.868,1.549-1.968,2.507c-0.108,1.031,0.461,2.161,1.602,3.18c1.968,1.76,4.232,3.18,6.422,4.554
							c2.576,1.616,5.24,3.287,7.47,5.533c6.08,6.121,8.51,14.107,10.657,22.44l0.04,0.158c0.354,1.378,0.721,2.803,1.358,4.068
							c0.54,1.072,1.177,1.684,1.948,1.872c1.131,0.276,2.383-0.356,3.228-0.855c1.42-0.839,2.732-1.932,4.001-2.989
							c0.24-0.2,0.48-0.4,0.72-0.597c1.516-1.249,3.071-2.571,4.752-4.042c2.981-2.609,5.898-5.28,9.128-8.251l0.535-0.492
							c5.78-5.317,11.757-10.815,18.081-15.703c1.586-1.225,3.184-2.403,4.753-3.502c-0.026-0.015-0.049-0.034-0.07-0.055
							c-0.414-0.437-0.936-0.674-1.553-0.703c-1.384-0.066-3.069-0.888-4.699-1.683c-0.882-0.43-1.715-0.837-2.421-1.079
							c-2.623-0.902-5.002-1.615-7.274-2.18c-5.261-1.307-10.661-2.342-16.05-3.077c-6.97-0.95-14.07-1.416-21.089-1.389
							c-1.002,0.004-2.058-0.014-3.176-0.034C109.654,36.926,108.559,36.907,107.44,36.907z"/>
					</g>
					<path style="fill:#6A8CA3;" d="M134.501,40.304c-3.64-0.57-7.298-0.889-10.963-1.239c-3.099-0.295-6.186-0.7-9.285-0.987
						c-3.181-0.294-6.384-0.474-9.577-0.278c-1.051,0.064-2.1,0.176-3.141,0.335c2.528,0.302,5.059,0.577,7.593,0.824
						c3.288,0.321,6.581,0.6,9.875,0.849c1.618,0.122,3.238,0.237,4.857,0.345c1.555,0.104,3.113,0.175,4.662,0.347
						c3.062,0.341,6.082,0.967,9.117,1.489c2.607,0.448,5.246,0.838,7.896,0.849c-0.083-0.027-0.165-0.056-0.247-0.082
						C141.769,41.638,138.145,40.875,134.501,40.304z"/>
					<path style="opacity:0.65;fill:#6A8CA3;" d="M168.381,47.441c-0.396-0.193-0.793-0.381-1.191-0.567
						c-0.501-0.529-1.109-0.77-1.766-0.801c-2.063-0.098-5.025-2.055-7.033-2.746c-0.889-0.306-1.779-0.595-2.671-0.875
						c-5.707,1.866-11.216,4.323-16.303,7.533c-1.315,0.83-2.633,1.684-3.855,2.646c-0.979,0.77-1.909,1.601-2.854,2.411
						c-2.055,1.761-4.213,3.61-6.743,4.648c-1.054,0.432-2.209,0.704-3.352,0.559c-1.273-0.162-2.346-0.894-3.248-1.771
						c-1.115-1.085-2.016-2.368-2.926-3.623c-0.424-0.584-0.848-1.17-1.312-1.723c-0.551-0.657-1.219-1.224-1.858-1.793
						c-2.713-2.413-5.739-4.528-9.169-5.784c-2.277-0.833-4.615-1.536-6.808-2.582c-1.368-0.653-3.419-1.696-3.538-3.438
						c-0.007-0.1-0.005-0.198,0.002-0.295c-2.434,1.636-2.204,3.999-0.027,5.946c4.301,3.846,9.78,5.947,13.879,10.074
						c6.09,6.131,8.475,14.143,10.575,22.297c0.373,1.449,0.746,2.945,1.422,4.288c0.457,0.907,1.121,1.784,2.155,2.037
						c1.194,0.291,2.461-0.298,3.463-0.89c1.71-1.01,3.232-2.355,4.761-3.614c1.608-1.324,3.191-2.676,4.759-4.048
						c3.089-2.703,6.113-5.478,9.134-8.256c6.047-5.562,12.09-11.149,18.596-16.178c1.573-1.216,3.173-2.397,4.802-3.536
						c0.06-0.042,0.098-0.105,0.107-0.171c0.29,0.134,0.58,0.267,0.868,0.405C168.335,47.636,168.492,47.495,168.381,47.441z"/>
					<path style="opacity:0.65;fill:#6A8CA3;" d="M168.381,47.441c-0.396-0.193-0.793-0.381-1.191-0.567
						c-0.501-0.529-1.109-0.77-1.766-0.801c-2.063-0.098-5.025-2.055-7.033-2.746c-0.889-0.306-1.779-0.595-2.671-0.875
						c-1.686,0.552-3.353,1.162-4.999,1.82c-3.208,1.581-6.28,3.499-9.22,5.521c-1.544,1.062-3.081,2.153-4.562,3.302
						c-1.376,1.067-2.655,2.254-3.894,3.475c-2.426,2.391-4.715,4.932-7.336,7.117c-1.29,1.075-2.721,2.271-4.339,2.798
						c-1.317,0.429-2.648,0.242-3.776-0.566c-1.216-0.872-2.07-2.193-2.847-3.444c-0.872-1.405-1.737-2.802-2.712-4.139
						c-2.014-2.763-4.345-5.305-7.068-7.383c-2.13-1.625-4.487-2.791-6.835-4.049c-1.836-0.983-3.816-2.102-5.051-3.833
						c-0.437-0.613-0.751-1.313-0.872-2.054c-0.533,1.345,0.044,2.853,1.518,4.171c4.301,3.846,9.78,5.947,13.879,10.074
						c6.09,6.131,8.475,14.143,10.575,22.297c0.373,1.449,0.746,2.945,1.422,4.288c0.457,0.907,1.121,1.784,2.155,2.037
						c1.194,0.291,2.461-0.298,3.463-0.89c1.71-1.01,3.232-2.355,4.761-3.614c1.608-1.324,3.191-2.676,4.759-4.048
						c3.089-2.703,6.113-5.478,9.134-8.256c6.047-5.562,12.09-11.149,18.596-16.178c1.573-1.216,3.173-2.397,4.802-3.536
						c0.06-0.042,0.098-0.105,0.107-0.171c0.29,0.134,0.58,0.267,0.868,0.405C168.335,47.636,168.492,47.495,168.381,47.441z"/>
				</g>
				<g>
					<path style="fill:#6A8CA3;" d="M166.326,37.055c-41.162,19.217-75.646,52.333-88.527,97.136
						c-8.806,30.628-2.411,66.149,17.984,90.908c12.403,15.057,31.453,21.675,50.604,21.117c1.379-0.04,4.034-0.065,5.126-1.07
						c1.696-1.562-0.097-2.285-1.612-3.846c-5.142-5.301-10.11-10.75-13.244-17.523c-10.126-21.884-2.474-43.617,16.179-57.586
						c16.599-12.431,36.187-21.083,54.702-30.215c16.917-8.344,33.64-14.848,50.882-23.329
						c37.095-18.249,68.666-56.117,54.547-84.355c-8.462-16.923-55.192-12.331-71.919-10.714
						c-7.132,0.689-14.218,1.746-21.284,2.922C201.514,23.538,183.349,29.108,166.326,37.055z"/>
					<path style="fill:#536F82;" d="M144.15,246.564c-19.8,0-37.419-7.679-48.61-21.265c-9.943-12.071-16.862-27.076-20.008-43.394
						c-3.093-16.042-2.414-32.571,1.964-47.801c6.191-21.535,17.541-41.147,33.732-58.292
						c14.999-15.881,33.491-29.017,54.965-39.042c16.948-7.912,34.955-13.491,53.52-16.58c8.576-1.427,15.146-2.329,21.305-2.925
						l0.208-0.02c17.367-1.679,63.499-6.14,72.023,10.907c4.259,8.518,4.616,18.186,1.062,28.736
						c-3.509,10.415-10.787,21.287-21.047,31.439c-9.9,9.796-21.901,18.304-34.705,24.603c-8.614,4.237-17.217,8.034-25.536,11.705
						c-8.299,3.662-16.88,7.449-25.345,11.624c-2.975,1.467-6.032,2.949-8.989,4.382c-15.612,7.565-31.755,15.387-45.664,25.803
						c-19.492,14.598-25.654,36.516-16.082,57.202c3.14,6.786,8.235,12.335,13.184,17.436c0.321,0.331,0.651,0.62,0.971,0.9
						c0.755,0.661,1.408,1.232,1.417,1.97c0.006,0.466-0.252,0.933-0.788,1.427c-1.128,1.038-3.632,1.107-5.128,1.148l-0.203,0.006
						C145.646,246.553,144.895,246.564,144.15,246.564z M166.326,37.055l0.133,0.285c-21.401,9.991-39.829,23.081-54.773,38.904
						c-16.122,17.07-27.421,36.596-33.585,58.034c-4.351,15.135-5.026,31.563-1.952,47.508c3.127,16.215,10,31.123,19.876,43.113
						c11.069,13.438,28.515,21.035,48.124,21.036c0.74,0,1.482-0.011,2.228-0.033l0.204-0.006c1.316-0.036,3.764-0.103,4.719-0.982
						c0.398-0.366,0.589-0.679,0.586-0.956c-0.006-0.457-0.56-0.942-1.202-1.504c-0.314-0.275-0.67-0.586-1.008-0.935
						c-4.987-5.14-10.122-10.734-13.304-17.61c-9.704-20.971-3.468-43.184,16.276-57.97c13.957-10.452,30.128-18.288,45.766-25.866
						c2.956-1.432,6.012-2.913,8.985-4.38c8.477-4.181,17.065-7.971,25.369-11.636c8.314-3.669,16.911-7.462,25.513-11.694
						c12.744-6.269,24.688-14.736,34.54-24.485c10.191-10.084,17.415-20.87,20.893-31.193c3.499-10.385,3.153-19.89-1.029-28.253
						c-3.548-7.096-14.453-11.176-32.412-12.127c-14.739-0.779-30.512,0.745-38.987,1.565l-0.207,0.02
						c-6.145,0.594-12.702,1.494-21.263,2.919c-18.509,3.08-36.461,8.642-53.357,16.53L166.326,37.055z"/>
				</g>
				<g>
					<path style="fill:#6A8CA3;" d="M75.372,176.047c0.08,1.774,0.207,3.548,0.383,5.319c0.038,0.203,0.073,0.407,0.112,0.61
						C75.655,180.003,75.487,178.027,75.372,176.047z"/>
					<path style="fill:#536F82;" d="M75.867,182.29c-0.148,0-0.28-0.105-0.308-0.255c-0.023-0.119-0.044-0.238-0.066-0.356
						l-0.046-0.256c-0.178-1.772-0.307-3.567-0.389-5.363c-0.008-0.173,0.125-0.32,0.298-0.328c0.169-0.01,0.32,0.123,0.33,0.296
						c0.11,1.897,0.276,3.886,0.494,5.913c0.018,0.168-0.099,0.32-0.266,0.345C75.899,182.289,75.883,182.29,75.867,182.29z"/>
				</g>
				<g>
					<path style="fill:#6A8CA3;" d="M97.761,102.837c7.672-11.173,16.803-21.359,27.045-30.233
						c11.042-9.566,23.254-17.675,36.047-24.7c3.133-1.72,6.313-3.35,9.449-5.064c3.172-1.734,6.327-3.498,9.533-5.169
						c3.631-1.892,7.348-3.679,11.184-5.13c-13.874,3.668-27.222,9.279-39.63,16.482c-13.51,7.843-25.933,17.577-36.715,28.884
						c-10.62,11.137-19.653,23.83-26.357,37.697c-4.286,8.865-7.588,18.212-9.741,27.817c0.437-1.607,0.908-3.204,1.413-4.79
						C84.047,125.888,90.199,113.849,97.761,102.837z"/>
					<path style="fill:#536F82;" d="M78.576,143.736c-0.025,0-0.051-0.003-0.076-0.009c-0.166-0.041-0.269-0.207-0.231-0.374
						c2.132-9.509,5.417-18.891,9.765-27.885c6.558-13.565,15.444-26.275,26.413-37.777c10.749-11.273,23.125-21.01,36.785-28.939
						c12.627-7.331,25.986-12.887,39.707-16.514c0.163-0.042,0.329,0.049,0.38,0.208c0.051,0.16-0.032,0.331-0.188,0.39
						c-3.32,1.257-6.863,2.882-11.149,5.115c-2.406,1.254-4.825,2.583-7.164,3.869c-0.787,0.433-1.575,0.866-2.363,1.297
						c-1.514,0.828-3.063,1.648-4.561,2.442c-1.607,0.851-3.268,1.732-4.888,2.621c-13.83,7.594-25.603,15.661-35.993,24.662
						c-10.275,8.901-19.357,19.053-26.992,30.173l-0.259-0.178l0.259,0.178c-7.869,11.46-13.835,23.476-17.731,35.712
						c-0.501,1.573-0.975,3.18-1.41,4.778C78.842,143.644,78.715,143.736,78.576,143.736z M186.067,34.268
						c-11.901,3.581-23.491,8.625-34.52,15.027c-13.608,7.9-25.937,17.6-36.645,28.829c-10.923,11.455-19.772,24.111-26.301,37.617
						c-2.368,4.899-4.42,9.913-6.14,15.001c3.773-9.599,8.814-19.015,15.041-28.084c7.666-11.164,16.783-21.356,27.099-30.292
						c10.423-9.03,22.232-17.122,36.102-24.738c1.624-0.892,3.287-1.773,4.896-2.626c1.496-0.793,3.043-1.613,4.554-2.438
						c0.788-0.431,1.575-0.863,2.362-1.296c2.342-1.287,4.764-2.619,7.176-3.876C182.003,36.188,184.102,35.158,186.067,34.268z"/>
				</g>
				<path style="opacity:0.53;fill:#FFFFFF;" d="M312.69,27.783c-7.276-2.694-15.182-3.192-22.875-3.049
					c-9.283,0.173-18.496,0.909-27.646,2.522c-18.727,3.302-37.113,9.389-54.626,16.736c-14.857,6.233-29.171,13.935-42.552,22.907
					c-13.576,9.103-26.24,19.639-37.286,31.706c-5.491,5.998-10.573,12.374-15.127,19.113c-3.925,5.808-7.639,11.882-10.431,18.326
					c-4.431,10.224-6.576,21.381-6.789,32.498c-0.214,11.145,1.494,22.344,5.079,32.901c3.447,10.152,8.685,19.802,15.862,27.807
					c6.943,7.745,15.721,13.81,25.673,16.961c1.47,0.043,2.942,0.048,4.416,0.005c1.379-0.04,4.034-0.065,5.126-1.07
					c1.696-1.562-0.097-2.285-1.612-3.846c-5.142-5.301-10.11-10.75-13.244-17.523c-10.126-21.884-2.474-43.617,16.179-57.586
					c16.599-12.431,36.187-21.083,54.702-30.215c16.917-8.344,33.64-14.848,50.882-23.329
					c37.095-18.249,68.666-56.117,54.547-84.355C312.881,28.119,312.784,27.952,312.69,27.783z"/>
				<path style="opacity:0.36;fill:#6A8CA3;" d="M218.602,122.739c-3.433-0.19-6.911-0.959-10.013-2.468
					c-3.123-1.52-5.894-3.964-7.772-6.886c-1.786-2.777-2.725-6.01-2.92-9.294c-0.122-2.06,0.046-4.125,0.419-6.154
					c-0.928,2.562-1.633,5.213-2.027,7.904c-0.509,3.473-0.49,7.134,0.68,10.479c1.226,3.504,3.798,6.288,7.144,7.879
					c3.858,1.834,8.335,2.015,12.475,1.191c2.848-0.567,5.63-1.598,8.161-3.05C222.731,122.756,220.635,122.852,218.602,122.739z"/>
				<path style="opacity:0.36;fill:#6A8CA3;" d="M215.841,52.939c1.794,3.413,3.324,6.953,5.024,10.412
					c0.319-1.64,0.094-3.367-0.283-4.978c-0.431-1.841-1.094-3.623-1.845-5.355c-0.102-0.234,0.113-0.499,0.363-0.363
					c0.782,0.425,1.583,0.816,2.407,1.156c2.909,1.199,6.075,1.798,9.218,1.44c2.818-0.321,5.503-1.441,7.757-3.155
					c2.408-1.831,4.282-4.297,5.623-6.994c1.479-2.974,2.424-6.317,2.59-9.639c0.08-1.587-0.003-3.197-0.251-4.781
					c-12.696,3.261-25.159,7.629-37.219,12.616C211.95,46.102,214.031,49.495,215.841,52.939z"/>
				<path style="opacity:0.36;fill:#6A8CA3;" d="M285.718,85.587c-2.737,0.565-5.516,1.02-8.285,1.393
					c-4.118,0.555-8.281,0.772-12.433,0.571c-7.775-0.377-15.423-2.223-22.588-5.248c-6.571-2.775-12.535-6.684-17.904-11.365
					c-2.972-2.591-5.705-5.449-8.201-8.5c-1.09-1.333-2.208-2.657-3.239-4.036c-0.84-1.124-1.638-2.347-2.071-3.694
					c-0.458,0.644-0.876,1.315-1.252,2.01c-2.007,3.712-2.961,7.943-3.548,12.09c-0.582,4.109-0.762,8.265-0.837,12.41
					c-0.088,4.847,0.126,9.724,1.207,14.466c1.023,4.49,2.852,8.882,5.827,12.439c2.33,2.787,5.327,4.95,8.708,6.282
					c3.331,1.313,6.921,1.842,10.489,1.823c3.709-0.019,7.403-0.615,10.976-1.594c3.559-0.975,7.025-2.329,10.299-4.031
					c4.343-2.257,8.437-5.043,12.203-8.163c3.754-3.109,7.193-6.588,10.296-10.345c0.039-0.047,0.082-0.068,0.126-0.078
					c0.275-0.221,0.613-0.385,0.905-0.517c0.809-0.367,1.667-0.622,2.524-0.85c1.649-0.439,3.327-0.757,4.999-1.099
					c0.705-0.144,1.378-0.301,2.054-0.552c1.149-0.426,2.268-0.93,3.35-1.505c2.743-1.457,5.202-3.361,7.392-5.544
					c-0.983,0.541-2.019,0.992-3.032,1.386C291.109,84.339,288.418,85.03,285.718,85.587z"/>
				<path style="opacity:0.65;fill:#6A8CA3;" d="M200.578,138.049c-10.726,4.252-21.531,8.428-31.844,13.627
					c-9.418,4.748-25.733,11.349-32.666,19.405c-6.177,7.179-17.188,23.798-2.91,52.268c0.076,0.152-0.181,0.247-0.298,0.162
					c-2.021-1.462-3.403-3.789-5.596-5.008c-0.513,2.118-0.554,4.302,0.087,6.402c2.139,6.999,9.414,10.641,13.239,16.54
					c0.057,0.088,0.042,0.249-0.081,0.28c-1.152,0.292-2.322,0.483-3.508,0.563c-5.11,0.346-10.233-1.138-14.834-3.257
					c-4.654-2.144-9.029-5.033-12.808-8.496c-8.205-7.518-14.275-17.68-15.765-28.804c-0.793-5.917-0.136-11.857,1.12-17.662
					c1.303-6.022,3.148-11.942,3.884-18.077c0.369-3.079,0.405-6.224,0.475-9.324c0.078-3.447,0.058-6.903-0.211-10.342
					c-0.258-3.308-0.669-6.761-1.963-9.845c-0.869-2.071-2.347-4.011-4.647-4.15c2.343,1.398,3.244,4.176,3.328,6.841
					c0.005,0.166-0.162,0.251-0.298,0.162c-1.465-0.959-3.117-1.599-4.892-1.497c-1.468,0.084-2.852,0.636-4.115,1.362
					c-2.578,1.483-4.712,3.628-7.019,5.478c-0.102,0.082-0.227,0.018-0.28-0.08c-0.924-1.713-1.361-3.641-1.538-5.568
					c-0.098-1.065-0.124-2.136-0.092-3.208c-8.122,30.251-1.598,64.956,18.436,89.277c12.403,15.057,31.453,21.675,50.604,21.117
					c1.379-0.04,4.034-0.065,5.126-1.07c1.696-1.562-0.097-2.285-1.612-3.846c-5.142-5.301-10.11-10.75-13.244-17.523
					c-10.126-21.884-2.474-43.617,16.179-57.586c16.599-12.431,36.187-21.083,54.702-30.215c1.017-0.501,2.036-1.007,3.055-1.514
					C207.247,135.639,203.875,136.742,200.578,138.049z"/>
				<g>
					<g>
						<path style="fill:#6A8CA3;" d="M97.84,140.441c-0.11-1.645-0.464-3.222-1.551-4.32c-0.165-0.167-0.346-0.32-0.543-0.456
							c-4.654-3.229-12.183,0.489-16.866,1.999c-21.918,7.07-43.003,18.452-60.272,33.757c-1.153,1.021-2.284,2.064-3.453,3.068
							c-1.166,1.002-2.336,2-3.47,3.039c-2.236,2.049-4.455,4.309-5.809,7.06c-0.3,0.609-0.544,1.241-0.736,1.892
							c-0.02,0.069,0.046,0.143,0.105,0.165c1.736,0.653,3.813,0.038,5.49-0.511c2.095-0.686,4.109-1.604,6.1-2.549
							c0.036-0.069,0.07-0.139,0.107-0.207c0.599-1.133,1.217-2.347,2.116-3.277c0.11-0.113,0.295-0.077,0.327,0.088
							c0.144,0.746,0.176,1.51,0.216,2.272c1.05-0.337,2.292-0.665,3.684-0.985c0.492-0.802,1.014-1.585,1.598-2.324
							c0.122-0.154,0.328-0.036,0.327,0.135c-0.003,0.585,0.09,1.158,0.207,1.728c1.451-0.296,3.024-0.584,4.682-0.865
							c0.31-0.505,0.655-0.987,1.068-1.396c0.326-0.323,0.752-0.619,1.235-0.545c0.44,0.067,0.793,0.39,1.095,0.694
							c0.197,0.198,0.385,0.404,0.575,0.609c10.169-1.555,20.474-2.297,30.698-3.394c8.511-0.914,25.349-0.023,29.986-8.616
							c3.731-6.914,3.686-14.901,3.165-22.503C97.829,143.655,97.945,142.016,97.84,140.441z"/>
						<path style="fill:#536F82;" d="M6.912,187.238c-0.611,0-1.209-0.087-1.776-0.3c-0.198-0.075-0.367-0.305-0.296-0.548
							c0.197-0.671,0.451-1.324,0.755-1.942c1.39-2.824,3.647-5.107,5.878-7.153c1.028-0.943,2.103-1.865,3.141-2.757l0.336-0.289
							c0.75-0.645,1.499-1.317,2.223-1.967c0.408-0.367,0.816-0.733,1.226-1.097c16.645-14.752,37.525-26.447,60.384-33.821
							c0.77-0.249,1.622-0.559,2.524-0.887c4.723-1.719,10.599-3.858,14.617-1.071c0.208,0.145,0.406,0.311,0.586,0.493
							c1.286,1.299,1.552,3.202,1.641,4.521l0,0c0.055,0.826,0.05,1.661,0.046,2.468c-0.004,0.746-0.009,1.45,0.035,2.086
							c0.493,7.186,0.692,15.458-3.202,22.674c-3.87,7.173-15.997,7.877-24.851,8.391c-1.967,0.114-3.825,0.222-5.378,0.389
							c-3.126,0.336-6.313,0.643-9.394,0.94c-7,0.675-14.238,1.374-21.29,2.452c-0.104,0.015-0.208-0.021-0.279-0.098l-0.045-0.048
							c-0.172-0.186-0.343-0.372-0.522-0.552c-0.263-0.265-0.573-0.551-0.92-0.605c-0.294-0.044-0.609,0.105-0.966,0.458
							c-0.348,0.344-0.673,0.769-1.021,1.337c-0.047,0.077-0.126,0.13-0.215,0.146c-1.72,0.292-3.292,0.582-4.671,0.863
							c-0.17,0.036-0.336-0.075-0.371-0.245c-0.088-0.428-0.177-0.921-0.204-1.441c-0.439,0.58-0.874,1.225-1.351,2.002
							c-0.044,0.072-0.115,0.123-0.198,0.142c-1.426,0.327-2.656,0.657-3.658,0.978c-0.093,0.03-0.195,0.015-0.275-0.041
							c-0.08-0.055-0.13-0.145-0.135-0.243l-0.007-0.129c-0.031-0.613-0.063-1.244-0.16-1.852c-0.738,0.825-1.282,1.858-1.81,2.858
							l-0.196,0.375c-0.032,0.061-0.082,0.109-0.144,0.139c-1.817,0.864-3.94,1.845-6.137,2.564
							C9.592,186.839,8.222,187.238,6.912,187.238z M5.495,186.398c1.562,0.521,3.396,0.008,5.144-0.564
							c2.123-0.695,4.188-1.645,5.966-2.489l0.149-0.285c0.587-1.113,1.194-2.263,2.079-3.179c0.137-0.141,0.335-0.195,0.517-0.141
							c0.179,0.053,0.308,0.198,0.345,0.388c0.122,0.633,0.166,1.279,0.2,1.91c0.91-0.278,1.981-0.56,3.192-0.84
							c0.544-0.879,1.038-1.594,1.55-2.242c0.133-0.168,0.346-0.233,0.542-0.164c0.208,0.073,0.348,0.272,0.346,0.496
							c-0.003,0.471,0.062,0.937,0.14,1.356c1.272-0.255,2.696-0.517,4.241-0.781c0.348-0.552,0.68-0.979,1.039-1.334
							c0.501-0.496,1.007-0.71,1.504-0.632c0.535,0.082,0.937,0.447,1.27,0.783c0.16,0.161,0.315,0.328,0.47,0.495
							c7.017-1.066,14.206-1.76,21.159-2.431c3.08-0.297,6.264-0.604,9.388-0.94c1.568-0.168,3.433-0.277,5.408-0.391
							c8.706-0.506,20.63-1.198,24.334-8.062c3.814-7.069,3.615-15.234,3.128-22.332c-0.045-0.659-0.041-1.375-0.036-2.133
							c0.005-0.796,0.009-1.619-0.045-2.423l0,0c-0.13-1.935-0.594-3.245-1.461-4.12c-0.154-0.156-0.322-0.297-0.498-0.419
							c-3.75-2.601-9.457-0.524-14.043,1.146c-0.908,0.33-1.765,0.643-2.547,0.895c-22.776,7.347-43.579,18.998-60.16,33.693
							c-0.409,0.363-0.816,0.728-1.223,1.094c-0.727,0.653-1.478,1.327-2.233,1.977l-0.336,0.289
							c-1.035,0.889-2.105,1.808-3.126,2.744c-2.187,2.005-4.395,4.236-5.739,6.967C5.897,185.26,5.674,185.821,5.495,186.398z"/>
					</g>
					<path style="opacity:0.65;fill:#6A8CA3;" d="M97.921,144.997c-0.092-1.342,0.025-2.98-0.081-4.555
						c-0.063-0.934-0.21-1.843-0.519-2.657c0.1,1.875,0.045,3.758-0.145,5.604c-0.439,4.275-1.626,8.698-4.201,12.206
						c-2.659,3.623-6.723,5.549-11.038,6.437c-4.712,0.969-9.559,0.903-14.345,1.038c-5.123,0.145-10.209,0.824-15.247,1.746
						c-5.665,1.037-11.269,2.451-16.71,4.34c-5.339,1.854-10.536,4.174-15.36,7.13c-0.798,0.489-1.597,0.976-2.331,1.559
						c-0.591,0.469-1.175,0.947-1.767,1.415c-1.446,1.141-2.932,2.272-4.563,3.139c-1.101,0.586-2.686,1.343-3.923,0.715
						c-0.27-0.137-0.473-0.32-0.627-0.53c-0.442,0.64-0.842,1.306-1.186,2.005c-0.3,0.609-0.544,1.24-0.736,1.892
						c-0.02,0.069,0.046,0.143,0.105,0.165c1.736,0.653,3.813,0.038,5.49-0.511c2.095-0.686,4.109-1.604,6.1-2.549
						c0.036-0.069,0.071-0.139,0.107-0.207c0.599-1.133,1.217-2.347,2.116-3.277c0.11-0.113,0.295-0.077,0.327,0.088
						c0.144,0.746,0.176,1.51,0.216,2.272c1.05-0.337,2.292-0.665,3.684-0.985c0.492-0.802,1.014-1.585,1.598-2.324
						c0.122-0.154,0.328-0.036,0.327,0.135c-0.003,0.585,0.09,1.158,0.207,1.728c1.451-0.296,3.024-0.584,4.681-0.865
						c0.31-0.505,0.655-0.987,1.068-1.396c0.326-0.323,0.752-0.619,1.235-0.545c0.44,0.067,0.793,0.39,1.095,0.694
						c0.197,0.198,0.385,0.404,0.575,0.609c10.169-1.555,20.474-2.297,30.698-3.394c8.511-0.914,25.349-0.023,29.986-8.616
						C98.487,160.585,98.442,152.599,97.921,144.997z"/>
					<path style="opacity:0.65;fill:#6A8CA3;" d="M89.095,168.68c-3.343,0.605-6.752,0.549-10.135,0.551
						c-5.022,0.003-10.045,0.028-15.064,0.216c-9.746,0.365-19.587,1.243-28.912,4.252c-4.586,1.48-9.041,3.337-13.429,5.322
						c-0.759,0.343-1.516,0.688-2.272,1.036c0.049,0.023,0.09,0.063,0.103,0.13c0.144,0.746,0.176,1.51,0.216,2.272
						c1.05-0.337,2.292-0.665,3.684-0.985c0.492-0.802,1.014-1.585,1.598-2.324c0.122-0.154,0.328-0.036,0.327,0.135
						c-0.003,0.585,0.09,1.158,0.207,1.728c1.451-0.296,3.024-0.584,4.681-0.865c0.31-0.505,0.655-0.987,1.068-1.396
						c0.326-0.323,0.752-0.619,1.235-0.545c0.44,0.067,0.793,0.39,1.095,0.694c0.197,0.198,0.385,0.404,0.575,0.609
						c10.169-1.555,20.474-2.297,30.698-3.394c8.511-0.914,25.349-0.023,29.986-8.616c0.237-0.439,0.458-0.884,0.666-1.331
						C93.573,167.527,91.343,168.273,89.095,168.68z"/>
					<path style="opacity:0.65;fill:#6A8CA3;" d="M12.775,183.278c-1.954,1.062-4.1,2.231-6.345,2.485
						c-0.341,0.038-0.698,0.045-1.045,0.001c-0.086,0.237-0.172,0.473-0.243,0.716c-0.02,0.069,0.046,0.143,0.105,0.165
						c1.736,0.653,3.813,0.038,5.49-0.511c2.095-0.686,4.109-1.604,6.1-2.549c0.036-0.069,0.071-0.139,0.107-0.207
						c0.576-1.091,1.173-2.253,2.019-3.168C16.872,181.176,14.801,182.177,12.775,183.278z"/>
					<path style="fill:#6A8CA3;" d="M55.355,149.74c-4.697,2.418-9.419,4.812-13.966,7.505c-2.42,1.433-4.803,2.926-7.17,4.444
						c-2.305,1.478-4.605,2.941-6.737,4.665c-1.033,0.835-2.038,1.706-3.031,2.59c1.137-0.736,2.29-1.448,3.454-2.135
						c4.148-2.449,8.441-4.637,12.711-6.861c2.216-1.154,4.417-2.33,6.58-3.58c2.307-1.333,4.592-2.705,6.889-4.056
						c4.509-2.653,9.104-5.167,13.809-7.456c3.373-1.641,6.789-3.205,10.113-4.944c-2.998,0.929-5.942,2.04-8.833,3.255
						C64.47,145.143,59.891,147.405,55.355,149.74z"/>
				</g>
				<g>
					<path style="fill:#6A8CA3;" d="M140.586,226.204c-2.341-0.049-4.708-0.469-6.841-1.462c-1.303-0.607-2.476-1.434-3.454-2.455
						c-0.133,0.221-0.232,0.512-0.283,0.895c-0.236,1.736,0.692,4.313,1.617,5.772c0.828,1.307,2.046,2.456,3.558,2.798
						c1.327,0.3,2.807-0.233,4.063-1.052c0.83-0.541,1.563-1.206,2.09-1.837c0.972-1.163,1.269-2.036,1.135-2.705
						C141.844,226.2,141.215,226.217,140.586,226.204z"/>
					<path style="fill:#536F82;" d="M135.953,232.149c-0.29,0-0.571-0.03-0.839-0.091c-1.426-0.322-2.759-1.365-3.754-2.936
						c-0.988-1.56-1.907-4.187-1.663-5.983c0.056-0.411,0.163-0.743,0.326-1.014c0.051-0.084,0.137-0.14,0.235-0.15
						c0.094-0.012,0.194,0.024,0.262,0.095c0.943,0.986,2.073,1.789,3.359,2.387c1.929,0.898,4.189,1.38,6.715,1.433c0,0,0,0,0,0
						c0.596,0.013,1.222-0.002,1.858-0.045c0.162-0.013,0.299,0.097,0.33,0.252c0.167,0.83-0.226,1.801-1.202,2.969
						c-0.581,0.696-1.348,1.37-2.16,1.899C138.223,231.742,137.022,232.149,135.953,232.149z M130.398,222.839
						c-0.033,0.117-0.06,0.245-0.078,0.385c-0.216,1.589,0.629,4.075,1.571,5.562c0.905,1.429,2.099,2.374,3.362,2.66
						c1.089,0.247,2.446-0.112,3.822-1.008c0.76-0.495,1.478-1.126,2.02-1.775c0.718-0.86,1.084-1.588,1.092-2.171
						c-0.549,0.029-1.087,0.039-1.608,0.028c-2.614-0.055-4.958-0.557-6.967-1.492C132.403,224.464,131.324,223.729,130.398,222.839
						z"/>
				</g>
				<g>
					<g>
						<path style="fill:#536F82;" d="M152.272,65.085c-2.08,0.998-3.629,2.923-4.831,4.838c-1.304,2.078-2.317,4.32-3.187,6.61
							c-2.073,5.459-3.473,11.29-3.553,17.149c-0.046,3.382,0.349,6.759,1.369,9.991c0.115,0.363,0.757,0.08,0.67-0.245
							c-1.524-5.698-1.34-11.765-0.233-17.52c0.963-5.011,2.573-10.071,4.983-14.586c1.216-2.278,2.749-4.472,4.881-5.978
							C152.518,65.242,152.48,64.985,152.272,65.085z"/>
						<path style="fill:#536F82;" d="M138.553,79.458c0.609-2.317,1.452-4.601,2.884-6.544c0.076-0.103-0.08-0.156-0.148-0.08
							c-2.984,3.3-3.965,7.735-4.687,12c-0.379,2.238-0.771,4.472-0.914,6.74c-0.146,2.322-0.091,4.657,0.265,6.958
							c0.4,2.579,1.163,5.107,2.414,7.403c0.163,0.3,0.734-0.058,0.595-0.364c-1.906-4.191-2.552-8.8-2.354-13.376
							c0.095-2.193,0.413-4.351,0.756-6.516C137.695,83.595,138.016,81.5,138.553,79.458z"/>
						<path style="fill:#536F82;" d="M134.28,108.472c-0.371-0.595-0.854-1.105-1.235-1.694c-0.381-0.588-0.706-1.215-0.98-1.86
							c-0.576-1.356-0.922-2.813-1.157-4.264c-0.24-1.474-0.331-2.96-0.406-4.45c-0.096-1.888-0.184-3.772-0.144-5.663
							c0.045-2.118,0.248-4.276,0.824-6.322c0.053-0.189-0.224-0.16-0.275-0.022c-1.353,3.66-1.482,7.564-1.349,11.425
							c0.108,3.14,0.276,6.324,1.413,9.29c0.56,1.459,1.397,3.226,2.83,4.001C134.017,109.03,134.426,108.706,134.28,108.472z"/>
						<path style="fill:#536F82;" d="M129.562,110.699c-1.159-2.061-2.154-4.154-2.819-6.43c-0.711-2.431-1.191-5.019-1.214-7.557
							c-0.012-1.31,0.084-2.6,0.448-3.863c0.048-0.165-0.197-0.141-0.24-0.019c-0.813,2.299-0.948,4.819-0.747,7.233
							c0.219,2.625,0.898,5.267,1.915,7.695c0.504,1.203,1.073,2.394,1.928,3.388C129.096,111.452,129.773,111.075,129.562,110.699z
							"/>
						<path style="fill:#536F82;" d="M121.723,108.529c-0.666-0.578-1.032-1.375-1.302-2.198c-0.279-0.851-0.424-1.707-0.402-2.603
							c0.006-0.238-0.378-0.133-0.387,0.057c-0.021,0.453,0.009,0.899,0.031,1.351c0.023,0.501,0.067,0.992,0.17,1.484
							c0.187,0.892,0.581,1.862,1.296,2.459C121.421,109.321,122.049,108.812,121.723,108.529z"/>
					</g>
					<path style="fill:#6A8CA3;" d="M124.836,99.448c-0.028-0.644-0.062-1.29-0.157-1.929c-0.083-0.555-0.199-1.204-0.565-1.648
						c-0.415-0.504-1.079-0.559-1.633-0.227c-0.492,0.295-0.729,0.791-0.866,1.324c-0.062,0.24-0.105,0.486-0.136,0.735
						c-0.184,0.681-0.24,1.419-0.266,2.043c-0.059,1.416,0.013,2.984,0.668,4.274c0.303,0.596,0.809,1.057,1.497,1.116
						c0.46,0.039,0.962-0.275,1.14-0.697C125.183,102.856,124.907,101.108,124.836,99.448z"/>
					<path style="fill:#6A8CA3;" d="M129.423,88.735c-0.012-0.37-0.017-0.77-0.127-1.128c-0.199-0.652-1.038-0.49-1.432-0.116
						c-0.758,0.72-0.815,1.686-0.835,2.655c-0.195,0.692-0.364,1.401-0.373,2.116c-0.004,0.334,0.002,0.724,0.198,1.013
						c0.376,0.554,1.21,0.305,1.618-0.062c0.703-0.632,0.839-1.778,0.913-2.665C129.437,89.946,129.443,89.34,129.423,88.735z"/>
					<path style="fill:#6A8CA3;" d="M137.334,77.681c-0.135-0.595-0.895-0.533-1.296-0.282c-0.703,0.442-1.201,1.135-1.538,1.887
						c-0.266,0.451-0.488,0.928-0.652,1.424c-0.203,0.618-0.369,1.269-0.388,1.922c-0.016,0.542,0.03,1.185,0.406,1.613
						c0.176,0.201,0.422,0.33,0.703,0.26c1.416-0.353,1.993-1.861,2.348-3.134c0.189-0.679,0.341-1.368,0.422-2.069
						C137.399,78.781,137.452,78.2,137.334,77.681z"/>
					<path style="fill:#6A8CA3;" d="M145.343,70.247c-0.006-0.005-0.014-0.007-0.02-0.012c0.068-0.123,0.085-0.275-0.038-0.372
						c-0.177-0.14-0.427-0.029-0.577,0.091c-0.147,0.118-0.288,0.248-0.425,0.382c-0.013,0.009-0.028,0.018-0.041,0.027
						c-0.106,0.08-0.217,0.2-0.299,0.335c-0.135,0.157-0.263,0.317-0.377,0.485c-0.035,0.052-0.069,0.104-0.101,0.158
						c-0.025,0.041-0.174,0.315-0.101,0.178c-0.08,0.15-0.167,0.294-0.232,0.452c-0.049,0.12-0.092,0.246-0.131,0.369
						c-0.006,0.019-0.023,0.053-0.022,0.073c0.073-0.117,0.077-0.12,0.013-0.009c-0.036,0.049-0.058,0.103-0.067,0.163
						c-0.037,0.136-0.027,0.252-0.022,0.396c0.008,0.203,0.224,0.329,0.394,0.365c0.228,0.048,0.472-0.008,0.668-0.134
						c0.495-0.32,0.876-0.805,1.17-1.311C145.389,71.449,145.872,70.666,145.343,70.247z"/>
					<path style="fill:#6A8CA3;" d="M118.485,105.164c-0.004-0.126-0.044-0.234-0.113-0.328c0.006,0.007,0.013,0.015,0.02,0.022
						l-0.001-0.001c-0.021-0.051-0.065-0.092-0.115-0.127c0,0,0,0-0.001-0.001c0,0,0,0,0.001,0.001
						c-0.103-0.073-0.244-0.117-0.343-0.126c-0.022-0.002-0.046,0.001-0.069,0.001c-0.032-0.019-0.067-0.033-0.106-0.041
						c-0.213-0.045-0.476,0.07-0.593,0.254c-0.023,0.036-0.043,0.074-0.064,0.11c-0.101,0.093-0.188,0.2-0.233,0.328
						c-0.017,0.061-0.033,0.122-0.05,0.183c0,0.003,0,0.005,0,0.007c-0.01,0.067-0.007,0.129,0.002,0.19
						c-0.003,0.015-0.008,0.029-0.011,0.044c-0.024,0.117-0.035,0.235-0.035,0.355c0.001,0.133,0.016,0.264,0.025,0.395
						c-0.009,0.158,0.051,0.297,0.116,0.443c0.058,0.09,0.137,0.152,0.238,0.187c0.111,0.037,0.225,0.046,0.341,0.027
						c0.262-0.037,0.51-0.192,0.664-0.406c0.214-0.297,0.306-0.668,0.328-1.029C118.495,105.489,118.49,105.326,118.485,105.164z"/>
				</g>
			</g>
		</g>
		<path style="fill:#536F82;" d="M201.842,38.227c2.085-2.61,4.483-5.104,7.189-7.337c5.342-4.408,12.658-8.306,20.729-8.014
			c2.539,0.092,5.044,0.628,7.208,1.692c2.049,1.007,3.712,2.428,4.991,4.03c2.786,3.491,3.893,7.723,4.277,11.782
			c0.145,1.527,0.186,3.071,0.122,4.613c3.91-7.825,4.513-16.647,3.818-24.97c-4.22-37.269-44.647,0.594-48.441,18.344
			C201.77,38.32,201.805,38.273,201.842,38.227z"/>
		<path style="fill:#6A8CA3;" d="M203.602,34.89c0.067-0.08-0.511,1.237-1.139,3.35c2.492-2.828,5.242-5.536,8.456-7.871
			c3.783-2.749,8.36-5.031,13.571-5.522c5.19-0.488,10.846,0.949,14.632,3.795c3.463,2.604,5.047,6.268,5.601,9.931
			c0.403,2.661,0.305,5.349-0.013,8.018c3.133-5.443,4.565-11.599,4.664-17.526C251.196-15.296,214.547,11.254,203.602,34.89z"/>
		<path style="fill:#6A8CA3;" d="M233.053,5.862c2.138,0.018,4.254,0.467,6.194,1.479c1.617,0.844,3.016,2.019,4.069,3.512
			c1.03,1.461,1.703,3.158,2.104,4.893c0.812,3.518,0.62,7.258-0.153,10.765c-0.055,0.249-0.463,0.257-0.511,0
			c-0.08-0.419-0.18-0.833-0.308-1.241c-0.997-3.191-3.558-5.643-6.629-6.863c-3.084-1.225-6.65-1.241-9.859-0.521
			c-2.926,0.656-5.656,2.056-7.854,4.1c-1.582,1.471-2.862,3.238-3.815,5.17c2.512-1.183,5.254-2.033,8.2-2.311
			c5.19-0.488,10.846,0.949,14.632,3.795c3.463,2.604,5.047,6.268,5.601,9.931c0.403,2.661,0.305,5.349-0.013,8.018
			c3.132-5.443,4.565-11.599,4.664-17.526C250.232,8.173,242.557,3.01,233.053,5.862z"/>
		<g>
			<g>
				
					<ellipse transform="matrix(0.478 -0.8784 0.8784 0.478 87.0454 219.8321)" style="fill:#FFFFFF;" cx="228.475" cy="36.682" rx="17.746" ry="16.314"/>
				<path style="fill:#737577;" d="M227.272,54.423c-2.546,0-5.088-0.604-7.43-1.878c-3.906-2.126-6.677-5.776-7.803-10.279
					c-1.123-4.494-0.473-9.3,1.83-13.532c2.304-4.233,5.986-7.389,10.37-8.885c4.393-1.5,8.963-1.155,12.868,0.97
					c3.906,2.125,6.677,5.776,7.803,10.279c1.123,4.494,0.474,9.3-1.83,13.533C239.705,50.833,233.479,54.423,227.272,54.423z
					 M229.666,19.559c-1.732,0-3.492,0.293-5.223,0.885c-4.234,1.446-7.792,4.497-10.021,8.591
					c-2.228,4.094-2.857,8.739-1.772,13.079c1.082,4.331,3.744,7.839,7.493,9.88c7.75,4.217,17.791,0.779,22.386-7.663l0.276,0.15
					l-0.276-0.15c2.228-4.094,2.857-8.739,1.772-13.079c-1.082-4.33-3.743-7.839-7.493-9.879
					C234.596,20.167,232.16,19.559,229.666,19.559z"/>
			</g>
			<g>
				<path style="fill:#2D83B9;" d="M238.372,41.207c-1.183,5.981-6.991,9.871-12.972,8.687c-5.981-1.183-9.871-6.991-8.687-12.972
					s6.991-9.871,12.972-8.687C235.665,29.418,239.555,35.226,238.372,41.207z"/>
				
					<ellipse transform="matrix(0.2261 -0.9741 0.9741 0.2261 137.9238 252.3118)" style="fill:#063B5A;" cx="227.746" cy="39.358" rx="6.939" ry="6.939"/>
				<path style="fill:#FFFFFF;" d="M228.318,34.967c-0.365,1.843-2.154,3.041-3.997,2.676c-1.843-0.364-3.041-2.154-2.676-3.997
					c0.365-1.843,2.154-3.041,3.997-2.677C227.485,31.334,228.683,33.124,228.318,34.967z"/>
			</g>
		</g>
		<path style="fill:#536F82;" d="M309.984,63.899c-1.528,3.579-3.713,6.867-6.128,9.908c-2.48,3.123-5.338,5.962-8.48,8.417
			c-3.084,2.41-6.46,4.464-10.086,5.95c-3.589,1.471-7.383,2.246-11.239,2.589c-7.917,0.704-15.915-0.471-23.445-2.943
			c-7.603-2.495-14.775-6.288-21.135-11.141c-3.322-2.534-6.509-5.338-9.373-8.382c-1.493-1.587-5.973-8.424-7.005-10.043
			c-0.484-0.759-1.03-1.47-1.682-2.091c-0.257-0.245-0.67,0.127-0.771,0.346c-0.415,0.894-0.596,1.874-0.75,2.841
			c-0.168,1.053-0.328,2.101-0.528,3.148c-0.465,2.442-0.88,4.897-1.211,7.362c-0.609,4.524-0.958,9.117-0.929,13.683
			c0.053,8.093,1.503,17.033,7.118,23.253c2.197,2.434,4.938,4.288,8.009,5.436c3.204,1.197,6.672,1.609,10.078,1.482
			c4.125-0.154,8.175-1.073,12.006-2.596c3.894-1.548,7.532-3.679,11.003-6.012c3.518-2.365,6.87-4.959,10.296-7.453
			c3.483-2.535,7.256-4.989,11.419-6.228c0.443-0.132,0.894-0.252,1.348-0.357c0.323-0.061,0.645-0.125,0.966-0.193
			c0.248-0.04,0.497-0.074,0.746-0.099c0.147-0.014,0.296-0.072,0.415-0.165c0.904-0.223,1.799-0.478,2.682-0.774
			c3.742-1.252,7.268-3.156,10.491-5.421c6.526-4.585,12.063-10.76,15.434-18.016c0.382-0.822,0.749-1.649,1.08-2.493
			C310.396,63.688,310.05,63.743,309.984,63.899z"/>
		<path style="fill:#FFFFFF;" d="M268.836,94.556c-3.525,2.229-6.786,4.855-10.163,7.296c-6.715,4.853-13.948,9.344-22.285,10.597
			c-6.696,1.006-13.914,0.015-19.229-4.459c-6.192-5.212-8.313-13.712-8.748-21.47c-0.247-4.406-0.014-8.824,0.398-13.212
			c0.225-2.4,0.55-4.789,0.94-7.168c0.37-2.253,0.829-4.487,1.101-6.755c0.082-0.683,0.185-1.372,0.373-2.035
			c1.176,1.26,5.067,7.976,6.457,9.606c2.81,3.296,6.073,6.246,9.422,8.982c6.211,5.074,13.31,9.123,20.832,11.904
			c7.593,2.807,15.751,4.342,23.86,3.979c0.791-0.035,1.582-0.092,2.372-0.163C272.311,92.47,270.534,93.482,268.836,94.556z"/>
		<path style="fill:#C7C8CA;" d="M209.138,86.576c0.165-3.161,0.672-6.39,1.954-9.304c0.594-1.349,1.381-2.636,2.432-3.679
			c1.084-1.075,2.569-1.983,4.14-1.498c1.507,0.465,2.604,1.816,3.675,2.895c1.481,1.492,3.013,2.938,4.622,4.292
			c3.147,2.648,6.628,4.867,10.255,6.799c3.466,1.847,7.091,3.4,10.831,4.6c3.754,1.205,7.63,2.06,11.555,2.444
			c3.861,0.378,7.778,0.308,11.607-0.342c0.942-0.16,1.877-0.356,2.803-0.586c0.382-0.187,0.765-0.37,1.154-0.54
			c-0.79,0.07-1.582,0.127-2.372,0.163c-8.109,0.363-16.267-1.172-23.86-3.979c-7.522-2.781-14.621-6.83-20.832-11.904
			c-3.35-2.736-6.612-5.687-9.422-8.982c-1.39-1.63-5.281-8.346-6.457-9.606c-0.187,0.663-0.291,1.352-0.373,2.035
			c-0.272,2.268-0.731,4.502-1.101,6.755c-0.391,2.379-0.715,4.767-0.94,7.168c-0.412,4.389-0.646,8.807-0.398,13.212
			c0.166,2.955,0.577,6.017,1.364,8.964C209.186,92.551,208.981,89.569,209.138,86.576z"/>
		<path style="fill:#536F82;" d="M229.779,119.54c-3.788,0.985-7.423,2.493-11.394,2.558c-3.868,0.064-7.696-1-11.069-2.867
			c-2.908-1.61-5.406-3.668-7.032-6.608c-1.458-2.635-2.086-5.641-2.192-8.628c-0.12-3.391,0.395-6.966,1.66-10.123
			c0.07-0.175-0.213-0.134-0.267-0.005c-1.233,2.993-2.107,6.062-2.278,9.308c-0.164,3.111,0.322,6.297,1.618,9.142
			c1.41,3.091,3.715,5.385,6.583,7.154c3.358,2.071,7.181,3.366,11.137,3.545c4.602,0.208,9.055-1.338,13.274-3.013
			C230.065,119.905,230.13,119.449,229.779,119.54z"/>
		<path style="fill:#231F20;" d="M287.329,48.934c-2.003,0.315-3.91,1.404-5.482,2.649c-1.619,1.283-3.091,2.83-3.971,4.718
			c-0.105,0.226,0.089,0.465,0.323,0.46c1.481-0.03,2.759-1.129,3.72-2.153c1.018-1.084,1.859-2.294,2.468-3.65
			c0.056-0.125,0.027-0.21-0.041-0.263c0.948-0.59,1.949-1.091,3.01-1.457C287.53,49.179,287.56,48.897,287.329,48.934z"/>
		<path style="fill:#231F20;" d="M300.612,50.568c-0.132-0.135-0.417,0.053-0.321,0.225c0.417,0.746,0.579,1.617,0.614,2.472
			c-0.021,0.027-0.038,0.055-0.05,0.085c-0.003,0-0.007-0.001-0.01-0.002c-0.212,0.551-0.417,1.062-0.721,1.573
			c-0.298,0.501-0.62,1-0.828,1.547c-0.178,0.469-0.475,1.878,0.331,1.97c0.866,0.098,1.371-1.32,1.589-1.947
			c0.335-0.96,0.494-1.988,0.459-3.004C301.64,52.432,301.368,51.34,300.612,50.568z"/>
		<path style="fill:#3A505F;" d="M216.261,48.88c-1.418-2.568-3.252-4.91-5.428-6.878c-1.366-1.234-2.898-2.157-4.469-3.095
			c-0.106-0.063-0.3,0.117-0.182,0.191c1.308,0.811,2.471,1.957,3.528,3.069c1.078,1.134,2.121,2.305,3.072,3.549
			c1.987,2.601,3.491,5.423,4.775,8.426c0.455,1.064,0.875,2.18,1.377,3.246C218.299,54.479,217.338,51.655,216.261,48.88z"/>
		<path style="fill:#ABADB0;" d="M211.297,58.966l3.25,11.613c0.006,0.02,0.002,0.042-0.007,0.059l-4.962,9.42l-0.151-0.22
			l12.025-1.502c0.109-0.013,0.208,0.063,0.221,0.172c0.005,0.037-0.002,0.075-0.016,0.107l-6.687,14.965l-0.351-0.34l16.515-8.089
			c0.142-0.07,0.313-0.011,0.383,0.131c0.033,0.067,0.037,0.142,0.017,0.208l-5.793,19.574l-0.515-0.313l15.086-14.529
			c0.116-0.112,0.3-0.109,0.412,0.007c0.057,0.059,0.084,0.136,0.082,0.212l-0.55,17.187l-0.479-0.18l11.281-13.582
			c0.075-0.091,0.21-0.105,0.301-0.03c0.049,0.04,0.075,0.099,0.078,0.157l0.485,11.769l-0.309-0.089l7.6-10.797
			c0.029-0.042,0.086-0.052,0.127-0.024c0.022,0.015,0.036,0.04,0.039,0.065l0.624,5.557l-0.095-0.03l4.396-4.863
			c0.004-0.004,0.011-0.005,0.015-0.001l0.003,0.004l0.651,1.459l-0.671-1.45l0.018,0.003l-4.33,4.921
			c-0.02,0.022-0.054,0.025-0.077,0.005c-0.01-0.009-0.017-0.022-0.018-0.035l-0.698-5.548l0.166,0.042l-7.472,10.886
			c-0.053,0.077-0.159,0.097-0.236,0.044c-0.045-0.031-0.071-0.08-0.073-0.131l0-0.003l-0.573-11.765l0.379,0.127l-11.195,13.654
			c-0.095,0.115-0.265,0.132-0.38,0.038c-0.067-0.055-0.101-0.138-0.099-0.218l0.508-17.188l0.494,0.219l-15.058,14.557
			c-0.124,0.119-0.321,0.116-0.44-0.007c-0.081-0.084-0.105-0.201-0.075-0.305l5.841-19.56l0.4,0.339l-16.538,8.041
			c-0.129,0.063-0.284,0.01-0.347-0.118c-0.035-0.072-0.034-0.154-0.003-0.222l6.798-14.915l0.205,0.279l-12.037,1.407l-0.002,0
			c-0.082,0.01-0.157-0.049-0.166-0.132c-0.004-0.032,0.003-0.063,0.017-0.089l5.086-9.354l-0.007,0.059L211.297,58.966z"/>
		<path style="opacity:0.49;fill:#737577;" d="M236.958,21.094c-7.914-4.307-18.127-0.819-22.812,7.789s-2.068,19.079,5.846,23.385
			c7.914,4.307,18.127,0.819,22.812-7.789C247.489,35.871,244.872,25.401,236.958,21.094z M239.031,40.473
			c-2.677,5.317-7.959,9.626-13.485,9.672c-3.017,0.025-6.035-1.249-8.235-3.295c-8.396-7.804-2.613-21.73,7.208-24.64
			c4.418-1.309,9.635-0.125,13.007,3.119C241.767,29.41,241.585,35.4,239.031,40.473z"/>
		<path style="fill:#6A8CA3;" d="M203.022,36.501c2.281-4.316,4.939-8.439,7.998-12.245c3.239-4.031,6.948-7.717,11.181-10.702
			c2.154-1.519,4.449-2.831,6.844-3.932c2.546-1.17,5.295-2.072,8.13-1.967c4.187,0.154,8.124,2.445,10.572,5.797
			c-7.138-20.711-34.871,1.408-44.145,21.438C203.648,34.835,203.391,35.437,203.022,36.501z"/>
	</g>
	<g>
		<path style="fill:#6A8CA3;" d="M236.741,49.748c-3.709,1.019-7.729,1.355-11.482,0.363c-1.786-0.472-3.475-1.255-4.956-2.363
			c-1.401-1.048-2.612-2.323-3.629-3.745c-2.116-2.962-3.367-6.496-3.995-10.062c-0.061-0.349-0.113-0.699-0.163-1.05
			c-2.14,7.628,0.759,15.722,7.475,19.377c6.406,3.486,14.315,1.86,19.582-3.451C238.644,49.174,237.697,49.485,236.741,49.748z"/>
		<path style="fill:#536F82;" d="M227.318,54.44c-2.575,0-5.133-0.62-7.476-1.894c-6.725-3.66-9.861-11.776-7.628-19.739
			c0.04-0.144,0.182-0.239,0.323-0.229c0.148,0.01,0.27,0.122,0.291,0.269c0.049,0.347,0.1,0.695,0.161,1.04
			c0.684,3.889,2.01,7.231,3.941,9.933c1.031,1.443,2.229,2.68,3.561,3.676c1.412,1.056,3.043,1.833,4.848,2.311
			c3.334,0.881,7.247,0.756,11.318-0.363l0,0c0.935-0.257,1.879-0.567,2.805-0.92c0.138-0.052,0.295-0.002,0.376,0.122
			c0.081,0.124,0.064,0.288-0.04,0.393C236.288,52.578,231.779,54.44,227.318,54.44z M212.461,34.493
			c-1.384,7.172,1.642,14.213,7.681,17.5c5.742,3.125,12.848,2.145,18.108-2.372c-0.475,0.156-0.952,0.3-1.427,0.43
			c-4.177,1.148-8.204,1.274-11.646,0.364c-1.883-0.498-3.587-1.31-5.064-2.415c-1.384-1.035-2.627-2.318-3.696-3.814
			C214.515,41.523,213.185,38.264,212.461,34.493z"/>
	</g>
	<path style="fill:#6A8CA3;" d="M225.259,50.111c-1.786-0.472-3.475-1.255-4.956-2.363c-1.084-0.811-2.053-1.758-2.907-2.804
		c-1.124-0.513-2.181-1.172-3.131-1.978c-0.861-0.73-1.619-1.578-2.255-2.51c0.714,4.944,3.494,9.37,7.983,11.813
		c6.406,3.486,14.315,1.86,19.582-3.451c-0.931,0.355-1.877,0.667-2.834,0.93C233.032,50.767,229.012,51.103,225.259,50.111z"/>
	<g>
		<path style="fill:#6A8CA3;" d="M224.129,24.266c2.937,1.658,5.55,3.855,7.87,6.293c2.443,2.567,4.582,5.418,6.487,8.404
			c1.35,2.116,2.582,4.306,3.71,6.549c0.211-0.336,0.416-0.678,0.608-1.032c4.685-8.609,2.067-19.079-5.846-23.385
			c-5.437-2.958-11.958-2.239-17.027,1.293C221.384,22.876,222.79,23.51,224.129,24.266z"/>
		<path style="fill:#536F82;" d="M242.196,45.826c-0.005,0-0.01,0-0.015,0c-0.113-0.005-0.215-0.071-0.266-0.173
			c-1.152-2.291-2.395-4.485-3.694-6.521c-2.055-3.221-4.165-5.955-6.449-8.356c-2.502-2.629-5.126-4.727-7.797-6.236
			c-1.34-0.757-2.735-1.381-4.144-1.855c-0.113-0.038-0.194-0.136-0.211-0.254c-0.017-0.118,0.034-0.235,0.132-0.303
			c5.347-3.725,11.998-4.228,17.357-1.311c8.054,4.383,10.733,15.065,5.972,23.812c-0.175,0.322-0.372,0.655-0.618,1.049
			C242.405,45.771,242.304,45.826,242.196,45.826z M220.627,22.298c1.243,0.456,2.471,1.024,3.657,1.694c0,0,0,0,0,0
			c2.725,1.539,5.398,3.675,7.943,6.35c2.313,2.431,4.447,5.195,6.524,8.451c1.215,1.904,2.381,3.945,3.47,6.074
			c0.112-0.189,0.213-0.365,0.307-0.538c4.594-8.443,2.028-18.742-5.721-22.959C231.829,18.661,225.684,19.028,220.627,22.298z"/>
	</g>
	<path style="fill:#6A8CA3;" d="M239.368,22.73c0.235,1.692,0.374,3.394,0.374,5.103c-0.001,3.367-0.617,6.759-2.181,9.723
		c0.314,0.466,0.624,0.934,0.926,1.407c1.35,2.116,2.582,4.306,3.71,6.549c0.211-0.336,0.416-0.678,0.608-1.032
		C246.974,36.817,245.355,27.683,239.368,22.73z"/>
</g>
</svg>
